M48
; DRILL file {KiCad 9.0.2} date 2025-12-26T11:32:00+0800
; FORMAT={-:-/ absolute / metric / decimal}
; #@! TF.CreationDate,2025-12-26T11:32:00+08:00
; #@! TF.GenerationSoftware,Kicad,Pcbnew,9.0.2
; #@! TF.FileFunction,Plated,1,2,PTH
FMAT,2
METRIC
; #@! TA.AperFunction,Plated,PTH,ViaDrill
T1C0.300
; #@! TA.AperFunction,Plated,PTH,ComponentDrill
T2C1.000
%
G90
G05
T1
X108.0Y-86.5
X114.5Y-99.0
X123.0Y-101.0
X131.5Y-101.0
X140.25Y-97.5
X140.75Y-100.5
X147.0Y-90.5
X151.0Y-77.5
X151.0Y-83.25
X153.25Y-103.375
X153.5Y-97.5
T2
X101.5Y-82.57
X101.5Y-107.97
X104.04Y-82.57
X104.04Y-107.97
X106.58Y-82.57
X106.58Y-107.97
X109.12Y-82.57
X109.12Y-107.97
X111.66Y-82.57
X111.66Y-107.97
X114.2Y-82.57
X114.2Y-107.97
X116.74Y-82.57
X116.74Y-107.97
X119.28Y-82.57
X119.28Y-107.97
X121.82Y-82.57
X121.82Y-107.97
X124.36Y-82.57
X124.36Y-107.97
X126.9Y-82.57
X126.9Y-107.97
X129.44Y-82.57
X129.44Y-107.97
X131.98Y-82.57
X131.98Y-107.97
X134.52Y-82.57
X134.52Y-107.97
X137.06Y-82.57
X137.06Y-107.97
X168.0Y-78.49
X168.0Y-81.03
X168.0Y-83.57
X168.0Y-86.11
X168.0Y-88.65
X168.0Y-91.19
X168.0Y-93.73
X168.0Y-96.27
X168.0Y-98.81
X168.0Y-101.35
X168.0Y-103.89
X168.0Y-106.43
X168.0Y-108.97
X168.0Y-111.51
M30
