%TF.GenerationSoftware,KiCad,Pcbnew,9.0.2*%
%TF.CreationDate,2025-12-26T11:33:12+08:00*%
%TF.ProjectId,Capstone,43617073-746f-46e6-952e-6b696361645f,rev?*%
%TF.SameCoordinates,Original*%
%TF.FileFunction,Copper,L2,Bot*%
%TF.FilePolarity,Positive*%
%FSLAX46Y46*%
G04 Gerber Fmt 4.6, Leading zero omitted, Abs format (unit mm)*
G04 Created by KiCad (PCBNEW 9.0.2) date 2025-12-26 11:33:12*
%MOMM*%
%LPD*%
G01*
G04 APERTURE LIST*
%TA.AperFunction,ComponentPad*%
%ADD10R,1.700000X1.700000*%
%TD*%
%TA.AperFunction,ComponentPad*%
%ADD11C,1.700000*%
%TD*%
%TA.AperFunction,ViaPad*%
%ADD12C,0.600000*%
%TD*%
%TA.AperFunction,Conductor*%
%ADD13C,0.800000*%
%TD*%
%TA.AperFunction,Conductor*%
%ADD14C,0.200000*%
%TD*%
G04 APERTURE END LIST*
D10*
%TO.P,J1,1,Pin_1*%
%TO.N,/LED*%
X101500000Y-107970000D03*
D11*
%TO.P,J1,2,Pin_2*%
%TO.N,unconnected-(J1-Pin_2-Pad2)*%
X104040000Y-107970000D03*
%TO.P,J1,3,Pin_3*%
%TO.N,/LCD_CS*%
X106580000Y-107970000D03*
%TO.P,J1,4,Pin_4*%
%TO.N,/LCD_RS*%
X109120000Y-107970000D03*
%TO.P,J1,5,Pin_5*%
%TO.N,/LCD_RST*%
X111660000Y-107970000D03*
%TO.P,J1,6,Pin_6*%
%TO.N,unconnected-(J1-Pin_6-Pad6)*%
X114200000Y-107970000D03*
%TO.P,J1,7,Pin_7*%
%TO.N,unconnected-(J1-Pin_7-Pad7)*%
X116740000Y-107970000D03*
%TO.P,J1,8,Pin_8*%
%TO.N,unconnected-(J1-Pin_8-Pad8)*%
X119280000Y-107970000D03*
%TO.P,J1,9,Pin_9*%
%TO.N,/SCK*%
X121820000Y-107970000D03*
%TO.P,J1,10,Pin_10*%
%TO.N,/MISO*%
X124360000Y-107970000D03*
%TO.P,J1,11,Pin_11*%
%TO.N,/CTP_SDA*%
X126900000Y-107970000D03*
%TO.P,J1,12,Pin_12*%
%TO.N,unconnected-(J1-Pin_12-Pad12)*%
X129440000Y-107970000D03*
%TO.P,J1,13,Pin_13*%
%TO.N,unconnected-(J1-Pin_13-Pad13)*%
X131980000Y-107970000D03*
%TO.P,J1,14,Pin_14*%
%TO.N,/CTP_SCL*%
X134520000Y-107970000D03*
%TO.P,J1,15,Pin_15*%
%TO.N,/MOSI*%
X137060000Y-107970000D03*
%TD*%
D10*
%TO.P,J3,1,Pin_1*%
%TO.N,/VCC*%
X168000000Y-111510000D03*
D11*
%TO.P,J3,2,Pin_2*%
%TO.N,GND*%
X168000000Y-108970000D03*
%TO.P,J3,3,Pin_3*%
%TO.N,/LCD_CS*%
X168000000Y-106430000D03*
%TO.P,J3,4,Pin_4*%
%TO.N,/LCD_RST*%
X168000000Y-103890000D03*
%TO.P,J3,5,Pin_5*%
%TO.N,/LCD_RS*%
X168000000Y-101350000D03*
%TO.P,J3,6,Pin_6*%
%TO.N,/MOSI*%
X168000000Y-98810000D03*
%TO.P,J3,7,Pin_7*%
%TO.N,/SCK*%
X168000000Y-96270000D03*
%TO.P,J3,8,Pin_8*%
%TO.N,/LED*%
X168000000Y-93730000D03*
%TO.P,J3,9,Pin_9*%
%TO.N,/MISO*%
X168000000Y-91190000D03*
%TO.P,J3,10,Pin_10*%
%TO.N,/CTP_SCL*%
X168000000Y-88650000D03*
%TO.P,J3,11,Pin_11*%
%TO.N,/CTP_RST*%
X168000000Y-86110000D03*
%TO.P,J3,12,Pin_12*%
%TO.N,/CTP_SDA*%
X168000000Y-83570000D03*
%TO.P,J3,13,Pin_13*%
%TO.N,/CTP_INT*%
X168000000Y-81030000D03*
%TO.P,J3,14,Pin_14*%
%TO.N,unconnected-(J3-Pin_14-Pad14)*%
X168000000Y-78490000D03*
%TD*%
D10*
%TO.P,J2,1,Pin_1*%
%TO.N,unconnected-(J2-Pin_1-Pad1)*%
X137060000Y-82570000D03*
D11*
%TO.P,J2,2,Pin_2*%
%TO.N,unconnected-(J2-Pin_2-Pad2)*%
X134520000Y-82570000D03*
%TO.P,J2,3,Pin_3*%
%TO.N,unconnected-(J2-Pin_3-Pad3)*%
X131980000Y-82570000D03*
%TO.P,J2,4,Pin_4*%
%TO.N,unconnected-(J2-Pin_4-Pad4)*%
X129440000Y-82570000D03*
%TO.P,J2,5,Pin_5*%
%TO.N,unconnected-(J2-Pin_5-Pad5)*%
X126900000Y-82570000D03*
%TO.P,J2,6,Pin_6*%
%TO.N,/CTP_INT*%
X124360000Y-82570000D03*
%TO.P,J2,7,Pin_7*%
%TO.N,/CTP_RST*%
X121820000Y-82570000D03*
%TO.P,J2,8,Pin_8*%
%TO.N,unconnected-(J2-Pin_8-Pad8)*%
X119280000Y-82570000D03*
%TO.P,J2,9,Pin_9*%
%TO.N,unconnected-(J2-Pin_9-Pad9)*%
X116740000Y-82570000D03*
%TO.P,J2,10,Pin_10*%
%TO.N,unconnected-(J2-Pin_10-Pad10)*%
X114200000Y-82570000D03*
%TO.P,J2,11,Pin_11*%
%TO.N,unconnected-(J2-Pin_11-Pad11)*%
X111660000Y-82570000D03*
%TO.P,J2,12,Pin_12*%
%TO.N,unconnected-(J2-Pin_12-Pad12)*%
X109120000Y-82570000D03*
%TO.P,J2,13,Pin_13*%
%TO.N,unconnected-(J2-Pin_13-Pad13)*%
X106580000Y-82570000D03*
%TO.P,J2,14,Pin_14*%
%TO.N,GND*%
X104040000Y-82570000D03*
%TO.P,J2,15,Pin_15*%
%TO.N,/VCC*%
X101500000Y-82570000D03*
%TD*%
D12*
%TO.N,GND*%
X114500000Y-99000000D03*
X140250000Y-97500000D03*
X140750000Y-100500000D03*
X147000000Y-90500000D03*
X153500000Y-97500000D03*
X131500000Y-101000000D03*
X151000000Y-77500000D03*
X108000000Y-86500000D03*
X151000000Y-83250000D03*
X123000000Y-101000000D03*
X153250000Y-103375011D03*
%TD*%
D13*
%TO.N,/LED*%
X115740000Y-93730000D02*
X168000000Y-93730000D01*
X101500000Y-107970000D02*
X115740000Y-93730000D01*
D14*
%TO.N,/SCK*%
X121820000Y-107970000D02*
X133520000Y-96270000D01*
X133520000Y-96270000D02*
X168000000Y-96270000D01*
%TO.N,/LCD_RS*%
X168476760Y-95119000D02*
X169151000Y-95793240D01*
X121971000Y-95119000D02*
X168476760Y-95119000D01*
X169151000Y-100199000D02*
X168000000Y-101350000D01*
X109120000Y-107970000D02*
X121971000Y-95119000D01*
X169151000Y-95793240D02*
X169151000Y-100199000D01*
%TO.N,/LCD_RST*%
X111660000Y-107970000D02*
X115690000Y-112000000D01*
X115690000Y-112000000D02*
X159890000Y-112000000D01*
X159890000Y-112000000D02*
X168000000Y-103890000D01*
D13*
%TO.N,GND*%
X98500000Y-110000000D02*
X102250000Y-113750000D01*
X98500000Y-88110000D02*
X98500000Y-110000000D01*
X104040000Y-82570000D02*
X98500000Y-88110000D01*
X162017919Y-113750000D02*
X166797919Y-108970000D01*
X166797919Y-108970000D02*
X168000000Y-108970000D01*
X102250000Y-113750000D02*
X162017919Y-113750000D01*
%TO.N,/VCC*%
X171250000Y-73750000D02*
X171250000Y-108260000D01*
X101500000Y-82570000D02*
X110320000Y-73750000D01*
X171250000Y-108260000D02*
X168000000Y-111510000D01*
X110320000Y-73750000D02*
X171250000Y-73750000D01*
%TD*%
%TA.AperFunction,Conductor*%
%TO.N,GND*%
G36*
X166781320Y-96890185D02*
G01*
X166824765Y-96938205D01*
X166844947Y-96977814D01*
X166844948Y-96977815D01*
X166969890Y-97149786D01*
X167120213Y-97300109D01*
X167292182Y-97425050D01*
X167300946Y-97429516D01*
X167351742Y-97477491D01*
X167368536Y-97545312D01*
X167345998Y-97611447D01*
X167300946Y-97650484D01*
X167292182Y-97654949D01*
X167120213Y-97779890D01*
X166969890Y-97930213D01*
X166844951Y-98102179D01*
X166748444Y-98291585D01*
X166682753Y-98493760D01*
X166649500Y-98703713D01*
X166649500Y-98916286D01*
X166682753Y-99126239D01*
X166748444Y-99328414D01*
X166844951Y-99517820D01*
X166969890Y-99689786D01*
X167120213Y-99840109D01*
X167292182Y-99965050D01*
X167300946Y-99969516D01*
X167351742Y-100017491D01*
X167368536Y-100085312D01*
X167345998Y-100151447D01*
X167300946Y-100190484D01*
X167292182Y-100194949D01*
X167120213Y-100319890D01*
X166969890Y-100470213D01*
X166844951Y-100642179D01*
X166748444Y-100831585D01*
X166682753Y-101033760D01*
X166649500Y-101243713D01*
X166649500Y-101456286D01*
X166682753Y-101666239D01*
X166748444Y-101868414D01*
X166844951Y-102057820D01*
X166969890Y-102229786D01*
X167120213Y-102380109D01*
X167292182Y-102505050D01*
X167300946Y-102509516D01*
X167351742Y-102557491D01*
X167368536Y-102625312D01*
X167345998Y-102691447D01*
X167300946Y-102730484D01*
X167292182Y-102734949D01*
X167120213Y-102859890D01*
X166969890Y-103010213D01*
X166844951Y-103182179D01*
X166748444Y-103371585D01*
X166682753Y-103573760D01*
X166649500Y-103783713D01*
X166649500Y-103996286D01*
X166682754Y-104206244D01*
X166682754Y-104206247D01*
X166696491Y-104248523D01*
X166698486Y-104318364D01*
X166666241Y-104374522D01*
X159677584Y-111363181D01*
X159616261Y-111396666D01*
X159589903Y-111399500D01*
X115990098Y-111399500D01*
X115923059Y-111379815D01*
X115902417Y-111363181D01*
X114071417Y-109532181D01*
X114037932Y-109470858D01*
X114042916Y-109401166D01*
X114084788Y-109345233D01*
X114150252Y-109320816D01*
X114159098Y-109320500D01*
X114306286Y-109320500D01*
X114306287Y-109320500D01*
X114516243Y-109287246D01*
X114718412Y-109221557D01*
X114907816Y-109125051D01*
X114994138Y-109062335D01*
X115079786Y-109000109D01*
X115079788Y-109000106D01*
X115079792Y-109000104D01*
X115230104Y-108849792D01*
X115230106Y-108849788D01*
X115230109Y-108849786D01*
X115355048Y-108677820D01*
X115355047Y-108677820D01*
X115355051Y-108677816D01*
X115359514Y-108669054D01*
X115407488Y-108618259D01*
X115475308Y-108601463D01*
X115541444Y-108623999D01*
X115580486Y-108669056D01*
X115584951Y-108677820D01*
X115709890Y-108849786D01*
X115860213Y-109000109D01*
X116032179Y-109125048D01*
X116032181Y-109125049D01*
X116032184Y-109125051D01*
X116221588Y-109221557D01*
X116423757Y-109287246D01*
X116633713Y-109320500D01*
X116633714Y-109320500D01*
X116846286Y-109320500D01*
X116846287Y-109320500D01*
X117056243Y-109287246D01*
X117258412Y-109221557D01*
X117447816Y-109125051D01*
X117534138Y-109062335D01*
X117619786Y-109000109D01*
X117619788Y-109000106D01*
X117619792Y-109000104D01*
X117770104Y-108849792D01*
X117770106Y-108849788D01*
X117770109Y-108849786D01*
X117895048Y-108677820D01*
X117895047Y-108677820D01*
X117895051Y-108677816D01*
X117899514Y-108669054D01*
X117947488Y-108618259D01*
X118015308Y-108601463D01*
X118081444Y-108623999D01*
X118120486Y-108669056D01*
X118124951Y-108677820D01*
X118249890Y-108849786D01*
X118400213Y-109000109D01*
X118572179Y-109125048D01*
X118572181Y-109125049D01*
X118572184Y-109125051D01*
X118761588Y-109221557D01*
X118963757Y-109287246D01*
X119173713Y-109320500D01*
X119173714Y-109320500D01*
X119386286Y-109320500D01*
X119386287Y-109320500D01*
X119596243Y-109287246D01*
X119798412Y-109221557D01*
X119987816Y-109125051D01*
X120074138Y-109062335D01*
X120159786Y-109000109D01*
X120159788Y-109000106D01*
X120159792Y-109000104D01*
X120310104Y-108849792D01*
X120310106Y-108849788D01*
X120310109Y-108849786D01*
X120435048Y-108677820D01*
X120435047Y-108677820D01*
X120435051Y-108677816D01*
X120439514Y-108669054D01*
X120487488Y-108618259D01*
X120555308Y-108601463D01*
X120621444Y-108623999D01*
X120660486Y-108669056D01*
X120664951Y-108677820D01*
X120789890Y-108849786D01*
X120940213Y-109000109D01*
X121112179Y-109125048D01*
X121112181Y-109125049D01*
X121112184Y-109125051D01*
X121301588Y-109221557D01*
X121503757Y-109287246D01*
X121713713Y-109320500D01*
X121713714Y-109320500D01*
X121926286Y-109320500D01*
X121926287Y-109320500D01*
X122136243Y-109287246D01*
X122338412Y-109221557D01*
X122527816Y-109125051D01*
X122614138Y-109062335D01*
X122699786Y-109000109D01*
X122699788Y-109000106D01*
X122699792Y-109000104D01*
X122850104Y-108849792D01*
X122850106Y-108849788D01*
X122850109Y-108849786D01*
X122975048Y-108677820D01*
X122975047Y-108677820D01*
X122975051Y-108677816D01*
X122979514Y-108669054D01*
X123027488Y-108618259D01*
X123095308Y-108601463D01*
X123161444Y-108623999D01*
X123200486Y-108669056D01*
X123204951Y-108677820D01*
X123329890Y-108849786D01*
X123480213Y-109000109D01*
X123652179Y-109125048D01*
X123652181Y-109125049D01*
X123652184Y-109125051D01*
X123841588Y-109221557D01*
X124043757Y-109287246D01*
X124253713Y-109320500D01*
X124253714Y-109320500D01*
X124466286Y-109320500D01*
X124466287Y-109320500D01*
X124676243Y-109287246D01*
X124878412Y-109221557D01*
X125067816Y-109125051D01*
X125154138Y-109062335D01*
X125239786Y-109000109D01*
X125239788Y-109000106D01*
X125239792Y-109000104D01*
X125390104Y-108849792D01*
X125390106Y-108849788D01*
X125390109Y-108849786D01*
X125515048Y-108677820D01*
X125515047Y-108677820D01*
X125515051Y-108677816D01*
X125519514Y-108669054D01*
X125567488Y-108618259D01*
X125635308Y-108601463D01*
X125701444Y-108623999D01*
X125740486Y-108669056D01*
X125744951Y-108677820D01*
X125869890Y-108849786D01*
X126020213Y-109000109D01*
X126192179Y-109125048D01*
X126192181Y-109125049D01*
X126192184Y-109125051D01*
X126381588Y-109221557D01*
X126583757Y-109287246D01*
X126793713Y-109320500D01*
X126793714Y-109320500D01*
X127006286Y-109320500D01*
X127006287Y-109320500D01*
X127216243Y-109287246D01*
X127418412Y-109221557D01*
X127607816Y-109125051D01*
X127694138Y-109062335D01*
X127779786Y-109000109D01*
X127779788Y-109000106D01*
X127779792Y-109000104D01*
X127930104Y-108849792D01*
X127930106Y-108849788D01*
X127930109Y-108849786D01*
X128055048Y-108677820D01*
X128055047Y-108677820D01*
X128055051Y-108677816D01*
X128059514Y-108669054D01*
X128107488Y-108618259D01*
X128175308Y-108601463D01*
X128241444Y-108623999D01*
X128280486Y-108669056D01*
X128284951Y-108677820D01*
X128409890Y-108849786D01*
X128560213Y-109000109D01*
X128732179Y-109125048D01*
X128732181Y-109125049D01*
X128732184Y-109125051D01*
X128921588Y-109221557D01*
X129123757Y-109287246D01*
X129333713Y-109320500D01*
X129333714Y-109320500D01*
X129546286Y-109320500D01*
X129546287Y-109320500D01*
X129756243Y-109287246D01*
X129958412Y-109221557D01*
X130147816Y-109125051D01*
X130234138Y-109062335D01*
X130319786Y-109000109D01*
X130319788Y-109000106D01*
X130319792Y-109000104D01*
X130470104Y-108849792D01*
X130470106Y-108849788D01*
X130470109Y-108849786D01*
X130595048Y-108677820D01*
X130595047Y-108677820D01*
X130595051Y-108677816D01*
X130599514Y-108669054D01*
X130647488Y-108618259D01*
X130715308Y-108601463D01*
X130781444Y-108623999D01*
X130820486Y-108669056D01*
X130824951Y-108677820D01*
X130949890Y-108849786D01*
X131100213Y-109000109D01*
X131272179Y-109125048D01*
X131272181Y-109125049D01*
X131272184Y-109125051D01*
X131461588Y-109221557D01*
X131663757Y-109287246D01*
X131873713Y-109320500D01*
X131873714Y-109320500D01*
X132086286Y-109320500D01*
X132086287Y-109320500D01*
X132296243Y-109287246D01*
X132498412Y-109221557D01*
X132687816Y-109125051D01*
X132774138Y-109062335D01*
X132859786Y-109000109D01*
X132859788Y-109000106D01*
X132859792Y-109000104D01*
X133010104Y-108849792D01*
X133010106Y-108849788D01*
X133010109Y-108849786D01*
X133135048Y-108677820D01*
X133135047Y-108677820D01*
X133135051Y-108677816D01*
X133139514Y-108669054D01*
X133187488Y-108618259D01*
X133255308Y-108601463D01*
X133321444Y-108623999D01*
X133360486Y-108669056D01*
X133364951Y-108677820D01*
X133489890Y-108849786D01*
X133640213Y-109000109D01*
X133812179Y-109125048D01*
X133812181Y-109125049D01*
X133812184Y-109125051D01*
X134001588Y-109221557D01*
X134203757Y-109287246D01*
X134413713Y-109320500D01*
X134413714Y-109320500D01*
X134626286Y-109320500D01*
X134626287Y-109320500D01*
X134836243Y-109287246D01*
X135038412Y-109221557D01*
X135227816Y-109125051D01*
X135314138Y-109062335D01*
X135399786Y-109000109D01*
X135399788Y-109000106D01*
X135399792Y-109000104D01*
X135550104Y-108849792D01*
X135550106Y-108849788D01*
X135550109Y-108849786D01*
X135675048Y-108677820D01*
X135675047Y-108677820D01*
X135675051Y-108677816D01*
X135679514Y-108669054D01*
X135727488Y-108618259D01*
X135795308Y-108601463D01*
X135861444Y-108623999D01*
X135900486Y-108669056D01*
X135904951Y-108677820D01*
X136029890Y-108849786D01*
X136180213Y-109000109D01*
X136352179Y-109125048D01*
X136352181Y-109125049D01*
X136352184Y-109125051D01*
X136541588Y-109221557D01*
X136743757Y-109287246D01*
X136953713Y-109320500D01*
X136953714Y-109320500D01*
X137166286Y-109320500D01*
X137166287Y-109320500D01*
X137376243Y-109287246D01*
X137578412Y-109221557D01*
X137767816Y-109125051D01*
X137854138Y-109062335D01*
X137939786Y-109000109D01*
X137939788Y-109000106D01*
X137939792Y-109000104D01*
X138090104Y-108849792D01*
X138090106Y-108849788D01*
X138090109Y-108849786D01*
X138215048Y-108677820D01*
X138215047Y-108677820D01*
X138215051Y-108677816D01*
X138311557Y-108488412D01*
X138377246Y-108286243D01*
X138410500Y-108076287D01*
X138410500Y-107863713D01*
X138377246Y-107653757D01*
X138311557Y-107451588D01*
X138215051Y-107262184D01*
X138215049Y-107262181D01*
X138215048Y-107262179D01*
X138090109Y-107090213D01*
X137939786Y-106939890D01*
X137767820Y-106814951D01*
X137578414Y-106718444D01*
X137578413Y-106718443D01*
X137578412Y-106718443D01*
X137376243Y-106652754D01*
X137376241Y-106652753D01*
X137376240Y-106652753D01*
X137214957Y-106627208D01*
X137166287Y-106619500D01*
X136953713Y-106619500D01*
X136905042Y-106627208D01*
X136743760Y-106652753D01*
X136541585Y-106718444D01*
X136352179Y-106814951D01*
X136180213Y-106939890D01*
X136029890Y-107090213D01*
X135904949Y-107262182D01*
X135900484Y-107270946D01*
X135852509Y-107321742D01*
X135784688Y-107338536D01*
X135718553Y-107315998D01*
X135679516Y-107270946D01*
X135675050Y-107262182D01*
X135550109Y-107090213D01*
X135399786Y-106939890D01*
X135227820Y-106814951D01*
X135038414Y-106718444D01*
X135038413Y-106718443D01*
X135038412Y-106718443D01*
X134836243Y-106652754D01*
X134836241Y-106652753D01*
X134836240Y-106652753D01*
X134674957Y-106627208D01*
X134626287Y-106619500D01*
X134413713Y-106619500D01*
X134365042Y-106627208D01*
X134203760Y-106652753D01*
X134001585Y-106718444D01*
X133812179Y-106814951D01*
X133640213Y-106939890D01*
X133489890Y-107090213D01*
X133364949Y-107262182D01*
X133360484Y-107270946D01*
X133312509Y-107321742D01*
X133244688Y-107338536D01*
X133178553Y-107315998D01*
X133139516Y-107270946D01*
X133135050Y-107262182D01*
X133010109Y-107090213D01*
X132859786Y-106939890D01*
X132687820Y-106814951D01*
X132498414Y-106718444D01*
X132498413Y-106718443D01*
X132498412Y-106718443D01*
X132296243Y-106652754D01*
X132296241Y-106652753D01*
X132296240Y-106652753D01*
X132134957Y-106627208D01*
X132086287Y-106619500D01*
X131873713Y-106619500D01*
X131825042Y-106627208D01*
X131663760Y-106652753D01*
X131461585Y-106718444D01*
X131272179Y-106814951D01*
X131100213Y-106939890D01*
X130949890Y-107090213D01*
X130824949Y-107262182D01*
X130820484Y-107270946D01*
X130772509Y-107321742D01*
X130704688Y-107338536D01*
X130638553Y-107315998D01*
X130599516Y-107270946D01*
X130595050Y-107262182D01*
X130470109Y-107090213D01*
X130319786Y-106939890D01*
X130147820Y-106814951D01*
X129958414Y-106718444D01*
X129958413Y-106718443D01*
X129958412Y-106718443D01*
X129756243Y-106652754D01*
X129756241Y-106652753D01*
X129756240Y-106652753D01*
X129594957Y-106627208D01*
X129546287Y-106619500D01*
X129333713Y-106619500D01*
X129285042Y-106627208D01*
X129123760Y-106652753D01*
X128921585Y-106718444D01*
X128732179Y-106814951D01*
X128560213Y-106939890D01*
X128409890Y-107090213D01*
X128284949Y-107262182D01*
X128280484Y-107270946D01*
X128232509Y-107321742D01*
X128164688Y-107338536D01*
X128098553Y-107315998D01*
X128059516Y-107270946D01*
X128055050Y-107262182D01*
X127930109Y-107090213D01*
X127779786Y-106939890D01*
X127607820Y-106814951D01*
X127418414Y-106718444D01*
X127418413Y-106718443D01*
X127418412Y-106718443D01*
X127216243Y-106652754D01*
X127216241Y-106652753D01*
X127216240Y-106652753D01*
X127054957Y-106627208D01*
X127006287Y-106619500D01*
X126793713Y-106619500D01*
X126745042Y-106627208D01*
X126583760Y-106652753D01*
X126381585Y-106718444D01*
X126192179Y-106814951D01*
X126020213Y-106939890D01*
X125869890Y-107090213D01*
X125744949Y-107262182D01*
X125740484Y-107270946D01*
X125692509Y-107321742D01*
X125624688Y-107338536D01*
X125558553Y-107315998D01*
X125519516Y-107270946D01*
X125515050Y-107262182D01*
X125390109Y-107090213D01*
X125239786Y-106939890D01*
X125067820Y-106814951D01*
X124878414Y-106718444D01*
X124878413Y-106718443D01*
X124878412Y-106718443D01*
X124676243Y-106652754D01*
X124676241Y-106652753D01*
X124676240Y-106652753D01*
X124514957Y-106627208D01*
X124466287Y-106619500D01*
X124319096Y-106619500D01*
X124252057Y-106599815D01*
X124206302Y-106547011D01*
X124196358Y-106477853D01*
X124225383Y-106414297D01*
X124231415Y-106407819D01*
X126432988Y-104206247D01*
X133732417Y-96906819D01*
X133793740Y-96873334D01*
X133820098Y-96870500D01*
X166714281Y-96870500D01*
X166781320Y-96890185D01*
G37*
%TD.AperFunction*%
%TA.AperFunction,Conductor*%
G36*
X121377941Y-94650185D02*
G01*
X121423696Y-94702989D01*
X121433640Y-94772147D01*
X121404615Y-94835703D01*
X121398583Y-94842181D01*
X109604522Y-106636241D01*
X109543199Y-106669726D01*
X109478523Y-106666491D01*
X109436245Y-106652754D01*
X109296272Y-106630584D01*
X109226287Y-106619500D01*
X109013713Y-106619500D01*
X108965042Y-106627208D01*
X108803760Y-106652753D01*
X108601585Y-106718444D01*
X108412179Y-106814951D01*
X108240213Y-106939890D01*
X108089890Y-107090213D01*
X107964949Y-107262182D01*
X107960484Y-107270946D01*
X107912509Y-107321742D01*
X107844688Y-107338536D01*
X107778553Y-107315998D01*
X107739516Y-107270946D01*
X107735050Y-107262182D01*
X107610109Y-107090213D01*
X107459786Y-106939890D01*
X107287820Y-106814951D01*
X107098414Y-106718444D01*
X107098413Y-106718443D01*
X107098412Y-106718443D01*
X106896243Y-106652754D01*
X106896241Y-106652753D01*
X106896240Y-106652753D01*
X106734957Y-106627208D01*
X106686287Y-106619500D01*
X106473713Y-106619500D01*
X106425042Y-106627208D01*
X106263760Y-106652753D01*
X106061585Y-106718444D01*
X105872179Y-106814951D01*
X105700213Y-106939890D01*
X105549890Y-107090213D01*
X105424949Y-107262182D01*
X105420484Y-107270946D01*
X105372509Y-107321742D01*
X105304688Y-107338536D01*
X105238553Y-107315998D01*
X105199516Y-107270946D01*
X105195050Y-107262182D01*
X105070109Y-107090213D01*
X104919786Y-106939890D01*
X104747820Y-106814951D01*
X104558414Y-106718444D01*
X104558413Y-106718443D01*
X104558412Y-106718443D01*
X104356243Y-106652754D01*
X104356240Y-106652753D01*
X104351610Y-106651249D01*
X104352036Y-106649937D01*
X104296851Y-106618250D01*
X104264689Y-106556223D01*
X104271166Y-106486654D01*
X104298709Y-106444790D01*
X116076681Y-94666819D01*
X116138004Y-94633334D01*
X116164362Y-94630500D01*
X121310902Y-94630500D01*
X121377941Y-94650185D01*
G37*
%TD.AperFunction*%
%TA.AperFunction,Conductor*%
G36*
X132988941Y-95739185D02*
G01*
X133034696Y-95791989D01*
X133044640Y-95861147D01*
X133015615Y-95924703D01*
X133009583Y-95931181D01*
X122304522Y-106636241D01*
X122243199Y-106669726D01*
X122178523Y-106666491D01*
X122136245Y-106652754D01*
X121996272Y-106630584D01*
X121926287Y-106619500D01*
X121713713Y-106619500D01*
X121665042Y-106627208D01*
X121503760Y-106652753D01*
X121301585Y-106718444D01*
X121112179Y-106814951D01*
X120940213Y-106939890D01*
X120789890Y-107090213D01*
X120664949Y-107262182D01*
X120660484Y-107270946D01*
X120612509Y-107321742D01*
X120544688Y-107338536D01*
X120478553Y-107315998D01*
X120439516Y-107270946D01*
X120435050Y-107262182D01*
X120310109Y-107090213D01*
X120159786Y-106939890D01*
X119987820Y-106814951D01*
X119798414Y-106718444D01*
X119798413Y-106718443D01*
X119798412Y-106718443D01*
X119596243Y-106652754D01*
X119596241Y-106652753D01*
X119596240Y-106652753D01*
X119434957Y-106627208D01*
X119386287Y-106619500D01*
X119173713Y-106619500D01*
X119125042Y-106627208D01*
X118963760Y-106652753D01*
X118761585Y-106718444D01*
X118572179Y-106814951D01*
X118400213Y-106939890D01*
X118249890Y-107090213D01*
X118124949Y-107262182D01*
X118120484Y-107270946D01*
X118072509Y-107321742D01*
X118004688Y-107338536D01*
X117938553Y-107315998D01*
X117899516Y-107270946D01*
X117895050Y-107262182D01*
X117770109Y-107090213D01*
X117619786Y-106939890D01*
X117447820Y-106814951D01*
X117258414Y-106718444D01*
X117258413Y-106718443D01*
X117258412Y-106718443D01*
X117056243Y-106652754D01*
X117056241Y-106652753D01*
X117056240Y-106652753D01*
X116894957Y-106627208D01*
X116846287Y-106619500D01*
X116633713Y-106619500D01*
X116585042Y-106627208D01*
X116423760Y-106652753D01*
X116221585Y-106718444D01*
X116032179Y-106814951D01*
X115860213Y-106939890D01*
X115709890Y-107090213D01*
X115584949Y-107262182D01*
X115580484Y-107270946D01*
X115532509Y-107321742D01*
X115464688Y-107338536D01*
X115398553Y-107315998D01*
X115359516Y-107270946D01*
X115355050Y-107262182D01*
X115230109Y-107090213D01*
X115079786Y-106939890D01*
X114907820Y-106814951D01*
X114718414Y-106718444D01*
X114718413Y-106718443D01*
X114718412Y-106718443D01*
X114516243Y-106652754D01*
X114516241Y-106652753D01*
X114516240Y-106652753D01*
X114354957Y-106627208D01*
X114306287Y-106619500D01*
X114093713Y-106619500D01*
X114045042Y-106627208D01*
X113883760Y-106652753D01*
X113681585Y-106718444D01*
X113492179Y-106814951D01*
X113320213Y-106939890D01*
X113169890Y-107090213D01*
X113044949Y-107262182D01*
X113040484Y-107270946D01*
X112992509Y-107321742D01*
X112924688Y-107338536D01*
X112858553Y-107315998D01*
X112819516Y-107270946D01*
X112815050Y-107262182D01*
X112690109Y-107090213D01*
X112539786Y-106939890D01*
X112367820Y-106814951D01*
X112178414Y-106718444D01*
X112178413Y-106718443D01*
X112178412Y-106718443D01*
X111976243Y-106652754D01*
X111976241Y-106652753D01*
X111976240Y-106652753D01*
X111814957Y-106627208D01*
X111766287Y-106619500D01*
X111619096Y-106619500D01*
X111552057Y-106599815D01*
X111506302Y-106547011D01*
X111496358Y-106477853D01*
X111525383Y-106414297D01*
X111531415Y-106407819D01*
X122183416Y-95755819D01*
X122244739Y-95722334D01*
X122271097Y-95719500D01*
X132921902Y-95719500D01*
X132988941Y-95739185D01*
G37*
%TD.AperFunction*%
%TA.AperFunction,Conductor*%
G36*
X172942539Y-65520185D02*
G01*
X172988294Y-65572989D01*
X172999500Y-65624500D01*
X172999500Y-124375500D01*
X172979815Y-124442539D01*
X172927011Y-124488294D01*
X172875500Y-124499500D01*
X74124500Y-124499500D01*
X74057461Y-124479815D01*
X74011706Y-124427011D01*
X74000500Y-124375500D01*
X74000500Y-120878711D01*
X75649500Y-120878711D01*
X75649500Y-121121288D01*
X75681161Y-121361785D01*
X75743947Y-121596104D01*
X75836773Y-121820205D01*
X75836776Y-121820212D01*
X75958064Y-122030289D01*
X75958066Y-122030292D01*
X75958067Y-122030293D01*
X76105733Y-122222736D01*
X76105739Y-122222743D01*
X76277256Y-122394260D01*
X76277262Y-122394265D01*
X76469711Y-122541936D01*
X76679788Y-122663224D01*
X76903900Y-122756054D01*
X77138211Y-122818838D01*
X77318586Y-122842584D01*
X77378711Y-122850500D01*
X77378712Y-122850500D01*
X77621289Y-122850500D01*
X77669388Y-122844167D01*
X77861789Y-122818838D01*
X78096100Y-122756054D01*
X78320212Y-122663224D01*
X78530289Y-122541936D01*
X78722738Y-122394265D01*
X78894265Y-122222738D01*
X79041936Y-122030289D01*
X79163224Y-121820212D01*
X79256054Y-121596100D01*
X79318838Y-121361789D01*
X79350500Y-121121288D01*
X79350500Y-120878712D01*
X79350500Y-120878711D01*
X167649500Y-120878711D01*
X167649500Y-121121288D01*
X167681161Y-121361785D01*
X167743947Y-121596104D01*
X167836773Y-121820205D01*
X167836776Y-121820212D01*
X167958064Y-122030289D01*
X167958066Y-122030292D01*
X167958067Y-122030293D01*
X168105733Y-122222736D01*
X168105739Y-122222743D01*
X168277256Y-122394260D01*
X168277262Y-122394265D01*
X168469711Y-122541936D01*
X168679788Y-122663224D01*
X168903900Y-122756054D01*
X169138211Y-122818838D01*
X169318586Y-122842584D01*
X169378711Y-122850500D01*
X169378712Y-122850500D01*
X169621289Y-122850500D01*
X169669388Y-122844167D01*
X169861789Y-122818838D01*
X170096100Y-122756054D01*
X170320212Y-122663224D01*
X170530289Y-122541936D01*
X170722738Y-122394265D01*
X170894265Y-122222738D01*
X171041936Y-122030289D01*
X171163224Y-121820212D01*
X171256054Y-121596100D01*
X171318838Y-121361789D01*
X171350500Y-121121288D01*
X171350500Y-120878712D01*
X171318838Y-120638211D01*
X171256054Y-120403900D01*
X171163224Y-120179788D01*
X171041936Y-119969711D01*
X170894265Y-119777262D01*
X170894260Y-119777256D01*
X170722743Y-119605739D01*
X170722736Y-119605733D01*
X170530293Y-119458067D01*
X170530292Y-119458066D01*
X170530289Y-119458064D01*
X170320212Y-119336776D01*
X170320205Y-119336773D01*
X170096104Y-119243947D01*
X169861785Y-119181161D01*
X169621289Y-119149500D01*
X169621288Y-119149500D01*
X169378712Y-119149500D01*
X169378711Y-119149500D01*
X169138214Y-119181161D01*
X168903895Y-119243947D01*
X168679794Y-119336773D01*
X168679785Y-119336777D01*
X168469706Y-119458067D01*
X168277263Y-119605733D01*
X168277256Y-119605739D01*
X168105739Y-119777256D01*
X168105733Y-119777263D01*
X167958067Y-119969706D01*
X167836777Y-120179785D01*
X167836773Y-120179794D01*
X167743947Y-120403895D01*
X167681161Y-120638214D01*
X167649500Y-120878711D01*
X79350500Y-120878711D01*
X79318838Y-120638211D01*
X79256054Y-120403900D01*
X79163224Y-120179788D01*
X79041936Y-119969711D01*
X78894265Y-119777262D01*
X78894260Y-119777256D01*
X78722743Y-119605739D01*
X78722736Y-119605733D01*
X78530293Y-119458067D01*
X78530292Y-119458066D01*
X78530289Y-119458064D01*
X78320212Y-119336776D01*
X78320205Y-119336773D01*
X78096104Y-119243947D01*
X77861785Y-119181161D01*
X77621289Y-119149500D01*
X77621288Y-119149500D01*
X77378712Y-119149500D01*
X77378711Y-119149500D01*
X77138214Y-119181161D01*
X76903895Y-119243947D01*
X76679794Y-119336773D01*
X76679785Y-119336777D01*
X76469706Y-119458067D01*
X76277263Y-119605733D01*
X76277256Y-119605739D01*
X76105739Y-119777256D01*
X76105733Y-119777263D01*
X75958067Y-119969706D01*
X75836777Y-120179785D01*
X75836773Y-120179794D01*
X75743947Y-120403895D01*
X75681161Y-120638214D01*
X75649500Y-120878711D01*
X74000500Y-120878711D01*
X74000500Y-82463713D01*
X100149500Y-82463713D01*
X100149500Y-82676286D01*
X100182753Y-82886239D01*
X100248444Y-83088414D01*
X100344951Y-83277820D01*
X100469890Y-83449786D01*
X100620213Y-83600109D01*
X100792179Y-83725048D01*
X100792181Y-83725049D01*
X100792184Y-83725051D01*
X100981588Y-83821557D01*
X101183757Y-83887246D01*
X101393713Y-83920500D01*
X101393714Y-83920500D01*
X101606286Y-83920500D01*
X101606287Y-83920500D01*
X101816243Y-83887246D01*
X102018412Y-83821557D01*
X102207816Y-83725051D01*
X102262572Y-83685269D01*
X102379786Y-83600109D01*
X102379788Y-83600106D01*
X102379792Y-83600104D01*
X102530104Y-83449792D01*
X102530106Y-83449788D01*
X102530109Y-83449786D01*
X102615890Y-83331717D01*
X102655051Y-83277816D01*
X102659793Y-83268508D01*
X102707763Y-83217711D01*
X102775583Y-83200911D01*
X102841719Y-83223445D01*
X102880763Y-83268500D01*
X102885373Y-83277547D01*
X102924728Y-83331716D01*
X103557037Y-82699408D01*
X103574075Y-82762993D01*
X103639901Y-82877007D01*
X103732993Y-82970099D01*
X103847007Y-83035925D01*
X103910590Y-83052962D01*
X103278282Y-83685269D01*
X103278282Y-83685270D01*
X103332449Y-83724624D01*
X103521782Y-83821095D01*
X103723870Y-83886757D01*
X103933754Y-83920000D01*
X104146246Y-83920000D01*
X104356127Y-83886757D01*
X104356130Y-83886757D01*
X104558217Y-83821095D01*
X104747554Y-83724622D01*
X104801716Y-83685270D01*
X104801717Y-83685270D01*
X104169408Y-83052962D01*
X104232993Y-83035925D01*
X104347007Y-82970099D01*
X104440099Y-82877007D01*
X104505925Y-82762993D01*
X104522962Y-82699409D01*
X105155270Y-83331717D01*
X105155270Y-83331716D01*
X105194622Y-83277555D01*
X105199232Y-83268507D01*
X105247205Y-83217709D01*
X105315025Y-83200912D01*
X105381161Y-83223447D01*
X105420204Y-83268504D01*
X105424949Y-83277817D01*
X105549890Y-83449786D01*
X105700213Y-83600109D01*
X105872179Y-83725048D01*
X105872181Y-83725049D01*
X105872184Y-83725051D01*
X106061588Y-83821557D01*
X106263757Y-83887246D01*
X106473713Y-83920500D01*
X106473714Y-83920500D01*
X106686286Y-83920500D01*
X106686287Y-83920500D01*
X106896243Y-83887246D01*
X107098412Y-83821557D01*
X107287816Y-83725051D01*
X107342572Y-83685269D01*
X107459786Y-83600109D01*
X107459788Y-83600106D01*
X107459792Y-83600104D01*
X107610104Y-83449792D01*
X107610106Y-83449788D01*
X107610109Y-83449786D01*
X107735048Y-83277820D01*
X107735047Y-83277820D01*
X107735051Y-83277816D01*
X107739514Y-83269054D01*
X107787488Y-83218259D01*
X107855308Y-83201463D01*
X107921444Y-83223999D01*
X107960486Y-83269056D01*
X107964951Y-83277820D01*
X108089890Y-83449786D01*
X108240213Y-83600109D01*
X108412179Y-83725048D01*
X108412181Y-83725049D01*
X108412184Y-83725051D01*
X108601588Y-83821557D01*
X108803757Y-83887246D01*
X109013713Y-83920500D01*
X109013714Y-83920500D01*
X109226286Y-83920500D01*
X109226287Y-83920500D01*
X109436243Y-83887246D01*
X109638412Y-83821557D01*
X109827816Y-83725051D01*
X109882572Y-83685269D01*
X109999786Y-83600109D01*
X109999788Y-83600106D01*
X109999792Y-83600104D01*
X110150104Y-83449792D01*
X110150106Y-83449788D01*
X110150109Y-83449786D01*
X110275048Y-83277820D01*
X110275047Y-83277820D01*
X110275051Y-83277816D01*
X110279514Y-83269054D01*
X110327488Y-83218259D01*
X110395308Y-83201463D01*
X110461444Y-83223999D01*
X110500486Y-83269056D01*
X110504951Y-83277820D01*
X110629890Y-83449786D01*
X110780213Y-83600109D01*
X110952179Y-83725048D01*
X110952181Y-83725049D01*
X110952184Y-83725051D01*
X111141588Y-83821557D01*
X111343757Y-83887246D01*
X111553713Y-83920500D01*
X111553714Y-83920500D01*
X111766286Y-83920500D01*
X111766287Y-83920500D01*
X111976243Y-83887246D01*
X112178412Y-83821557D01*
X112367816Y-83725051D01*
X112422572Y-83685269D01*
X112539786Y-83600109D01*
X112539788Y-83600106D01*
X112539792Y-83600104D01*
X112690104Y-83449792D01*
X112690106Y-83449788D01*
X112690109Y-83449786D01*
X112815048Y-83277820D01*
X112815047Y-83277820D01*
X112815051Y-83277816D01*
X112819514Y-83269054D01*
X112867488Y-83218259D01*
X112935308Y-83201463D01*
X113001444Y-83223999D01*
X113040486Y-83269056D01*
X113044951Y-83277820D01*
X113169890Y-83449786D01*
X113320213Y-83600109D01*
X113492179Y-83725048D01*
X113492181Y-83725049D01*
X113492184Y-83725051D01*
X113681588Y-83821557D01*
X113883757Y-83887246D01*
X114093713Y-83920500D01*
X114093714Y-83920500D01*
X114306286Y-83920500D01*
X114306287Y-83920500D01*
X114516243Y-83887246D01*
X114718412Y-83821557D01*
X114907816Y-83725051D01*
X114962572Y-83685269D01*
X115079786Y-83600109D01*
X115079788Y-83600106D01*
X115079792Y-83600104D01*
X115230104Y-83449792D01*
X115230106Y-83449788D01*
X115230109Y-83449786D01*
X115355048Y-83277820D01*
X115355047Y-83277820D01*
X115355051Y-83277816D01*
X115359514Y-83269054D01*
X115407488Y-83218259D01*
X115475308Y-83201463D01*
X115541444Y-83223999D01*
X115580486Y-83269056D01*
X115584951Y-83277820D01*
X115709890Y-83449786D01*
X115860213Y-83600109D01*
X116032179Y-83725048D01*
X116032181Y-83725049D01*
X116032184Y-83725051D01*
X116221588Y-83821557D01*
X116423757Y-83887246D01*
X116633713Y-83920500D01*
X116633714Y-83920500D01*
X116846286Y-83920500D01*
X116846287Y-83920500D01*
X117056243Y-83887246D01*
X117258412Y-83821557D01*
X117447816Y-83725051D01*
X117502572Y-83685269D01*
X117619786Y-83600109D01*
X117619788Y-83600106D01*
X117619792Y-83600104D01*
X117770104Y-83449792D01*
X117770106Y-83449788D01*
X117770109Y-83449786D01*
X117895048Y-83277820D01*
X117895047Y-83277820D01*
X117895051Y-83277816D01*
X117899514Y-83269054D01*
X117947488Y-83218259D01*
X118015308Y-83201463D01*
X118081444Y-83223999D01*
X118120486Y-83269056D01*
X118124951Y-83277820D01*
X118249890Y-83449786D01*
X118400213Y-83600109D01*
X118572179Y-83725048D01*
X118572181Y-83725049D01*
X118572184Y-83725051D01*
X118761588Y-83821557D01*
X118963757Y-83887246D01*
X119173713Y-83920500D01*
X119173714Y-83920500D01*
X119386286Y-83920500D01*
X119386287Y-83920500D01*
X119596243Y-83887246D01*
X119798412Y-83821557D01*
X119987816Y-83725051D01*
X120042572Y-83685269D01*
X120159786Y-83600109D01*
X120159788Y-83600106D01*
X120159792Y-83600104D01*
X120310104Y-83449792D01*
X120310106Y-83449788D01*
X120310109Y-83449786D01*
X120435048Y-83277820D01*
X120435047Y-83277820D01*
X120435051Y-83277816D01*
X120439514Y-83269054D01*
X120487488Y-83218259D01*
X120555308Y-83201463D01*
X120621444Y-83223999D01*
X120660486Y-83269056D01*
X120664951Y-83277820D01*
X120789890Y-83449786D01*
X120940213Y-83600109D01*
X121112179Y-83725048D01*
X121112181Y-83725049D01*
X121112184Y-83725051D01*
X121301588Y-83821557D01*
X121503757Y-83887246D01*
X121713713Y-83920500D01*
X121713714Y-83920500D01*
X121926286Y-83920500D01*
X121926287Y-83920500D01*
X122136243Y-83887246D01*
X122338412Y-83821557D01*
X122527816Y-83725051D01*
X122582572Y-83685269D01*
X122699786Y-83600109D01*
X122699788Y-83600106D01*
X122699792Y-83600104D01*
X122850104Y-83449792D01*
X122850106Y-83449788D01*
X122850109Y-83449786D01*
X122975048Y-83277820D01*
X122975047Y-83277820D01*
X122975051Y-83277816D01*
X122979514Y-83269054D01*
X123027488Y-83218259D01*
X123095308Y-83201463D01*
X123161444Y-83223999D01*
X123200486Y-83269056D01*
X123204951Y-83277820D01*
X123329890Y-83449786D01*
X123480213Y-83600109D01*
X123652179Y-83725048D01*
X123652181Y-83725049D01*
X123652184Y-83725051D01*
X123841588Y-83821557D01*
X124043757Y-83887246D01*
X124253713Y-83920500D01*
X124253714Y-83920500D01*
X124466286Y-83920500D01*
X124466287Y-83920500D01*
X124676243Y-83887246D01*
X124878412Y-83821557D01*
X125067816Y-83725051D01*
X125122572Y-83685269D01*
X125239786Y-83600109D01*
X125239788Y-83600106D01*
X125239792Y-83600104D01*
X125390104Y-83449792D01*
X125390106Y-83449788D01*
X125390109Y-83449786D01*
X125515048Y-83277820D01*
X125515047Y-83277820D01*
X125515051Y-83277816D01*
X125519514Y-83269054D01*
X125567488Y-83218259D01*
X125635308Y-83201463D01*
X125701444Y-83223999D01*
X125740486Y-83269056D01*
X125744951Y-83277820D01*
X125869890Y-83449786D01*
X126020213Y-83600109D01*
X126192179Y-83725048D01*
X126192181Y-83725049D01*
X126192184Y-83725051D01*
X126381588Y-83821557D01*
X126583757Y-83887246D01*
X126793713Y-83920500D01*
X126793714Y-83920500D01*
X127006286Y-83920500D01*
X127006287Y-83920500D01*
X127216243Y-83887246D01*
X127418412Y-83821557D01*
X127607816Y-83725051D01*
X127662572Y-83685269D01*
X127779786Y-83600109D01*
X127779788Y-83600106D01*
X127779792Y-83600104D01*
X127930104Y-83449792D01*
X127930106Y-83449788D01*
X127930109Y-83449786D01*
X128055048Y-83277820D01*
X128055047Y-83277820D01*
X128055051Y-83277816D01*
X128059514Y-83269054D01*
X128107488Y-83218259D01*
X128175308Y-83201463D01*
X128241444Y-83223999D01*
X128280486Y-83269056D01*
X128284951Y-83277820D01*
X128409890Y-83449786D01*
X128560213Y-83600109D01*
X128732179Y-83725048D01*
X128732181Y-83725049D01*
X128732184Y-83725051D01*
X128921588Y-83821557D01*
X129123757Y-83887246D01*
X129333713Y-83920500D01*
X129333714Y-83920500D01*
X129546286Y-83920500D01*
X129546287Y-83920500D01*
X129756243Y-83887246D01*
X129958412Y-83821557D01*
X130147816Y-83725051D01*
X130202572Y-83685269D01*
X130319786Y-83600109D01*
X130319788Y-83600106D01*
X130319792Y-83600104D01*
X130470104Y-83449792D01*
X130470106Y-83449788D01*
X130470109Y-83449786D01*
X130595048Y-83277820D01*
X130595047Y-83277820D01*
X130595051Y-83277816D01*
X130599514Y-83269054D01*
X130647488Y-83218259D01*
X130715308Y-83201463D01*
X130781444Y-83223999D01*
X130820486Y-83269056D01*
X130824951Y-83277820D01*
X130949890Y-83449786D01*
X131100213Y-83600109D01*
X131272179Y-83725048D01*
X131272181Y-83725049D01*
X131272184Y-83725051D01*
X131461588Y-83821557D01*
X131663757Y-83887246D01*
X131873713Y-83920500D01*
X131873714Y-83920500D01*
X132086286Y-83920500D01*
X132086287Y-83920500D01*
X132296243Y-83887246D01*
X132498412Y-83821557D01*
X132687816Y-83725051D01*
X132742572Y-83685269D01*
X132859786Y-83600109D01*
X132859788Y-83600106D01*
X132859792Y-83600104D01*
X133010104Y-83449792D01*
X133010106Y-83449788D01*
X133010109Y-83449786D01*
X133135048Y-83277820D01*
X133135047Y-83277820D01*
X133135051Y-83277816D01*
X133139514Y-83269054D01*
X133187488Y-83218259D01*
X133255308Y-83201463D01*
X133321444Y-83223999D01*
X133360486Y-83269056D01*
X133364951Y-83277820D01*
X133489890Y-83449786D01*
X133640213Y-83600109D01*
X133812179Y-83725048D01*
X133812181Y-83725049D01*
X133812184Y-83725051D01*
X134001588Y-83821557D01*
X134203757Y-83887246D01*
X134413713Y-83920500D01*
X134413714Y-83920500D01*
X134626286Y-83920500D01*
X134626287Y-83920500D01*
X134836243Y-83887246D01*
X135038412Y-83821557D01*
X135227816Y-83725051D01*
X135399792Y-83600104D01*
X135513329Y-83486566D01*
X135574648Y-83453084D01*
X135644340Y-83458068D01*
X135700274Y-83499939D01*
X135717189Y-83530917D01*
X135766202Y-83662328D01*
X135766206Y-83662335D01*
X135852452Y-83777544D01*
X135852455Y-83777547D01*
X135967664Y-83863793D01*
X135967671Y-83863797D01*
X136102517Y-83914091D01*
X136102516Y-83914091D01*
X136109444Y-83914835D01*
X136162127Y-83920500D01*
X137957872Y-83920499D01*
X138017483Y-83914091D01*
X138152331Y-83863796D01*
X138267546Y-83777546D01*
X138353796Y-83662331D01*
X138404091Y-83527483D01*
X138410500Y-83467873D01*
X138410499Y-81672128D01*
X138404091Y-81612517D01*
X138402810Y-81609083D01*
X138353797Y-81477671D01*
X138353793Y-81477664D01*
X138267547Y-81362455D01*
X138267544Y-81362452D01*
X138152335Y-81276206D01*
X138152328Y-81276202D01*
X138017482Y-81225908D01*
X138017483Y-81225908D01*
X137957883Y-81219501D01*
X137957881Y-81219500D01*
X137957873Y-81219500D01*
X137957864Y-81219500D01*
X136162129Y-81219500D01*
X136162123Y-81219501D01*
X136102516Y-81225908D01*
X135967671Y-81276202D01*
X135967664Y-81276206D01*
X135852455Y-81362452D01*
X135852452Y-81362455D01*
X135766206Y-81477664D01*
X135766203Y-81477669D01*
X135717189Y-81609083D01*
X135675317Y-81665016D01*
X135609853Y-81689433D01*
X135541580Y-81674581D01*
X135513326Y-81653430D01*
X135399786Y-81539890D01*
X135227820Y-81414951D01*
X135038414Y-81318444D01*
X135038413Y-81318443D01*
X135038412Y-81318443D01*
X134836243Y-81252754D01*
X134836241Y-81252753D01*
X134836240Y-81252753D01*
X134674957Y-81227208D01*
X134626287Y-81219500D01*
X134413713Y-81219500D01*
X134365042Y-81227208D01*
X134203760Y-81252753D01*
X134001585Y-81318444D01*
X133812179Y-81414951D01*
X133640213Y-81539890D01*
X133489890Y-81690213D01*
X133364949Y-81862182D01*
X133360484Y-81870946D01*
X133312509Y-81921742D01*
X133244688Y-81938536D01*
X133178553Y-81915998D01*
X133139516Y-81870946D01*
X133135050Y-81862182D01*
X133010109Y-81690213D01*
X132859786Y-81539890D01*
X132687820Y-81414951D01*
X132498414Y-81318444D01*
X132498413Y-81318443D01*
X132498412Y-81318443D01*
X132296243Y-81252754D01*
X132296241Y-81252753D01*
X132296240Y-81252753D01*
X132134957Y-81227208D01*
X132086287Y-81219500D01*
X131873713Y-81219500D01*
X131825042Y-81227208D01*
X131663760Y-81252753D01*
X131461585Y-81318444D01*
X131272179Y-81414951D01*
X131100213Y-81539890D01*
X130949890Y-81690213D01*
X130824949Y-81862182D01*
X130820484Y-81870946D01*
X130772509Y-81921742D01*
X130704688Y-81938536D01*
X130638553Y-81915998D01*
X130599516Y-81870946D01*
X130595050Y-81862182D01*
X130470109Y-81690213D01*
X130319786Y-81539890D01*
X130147820Y-81414951D01*
X129958414Y-81318444D01*
X129958413Y-81318443D01*
X129958412Y-81318443D01*
X129756243Y-81252754D01*
X129756241Y-81252753D01*
X129756240Y-81252753D01*
X129594957Y-81227208D01*
X129546287Y-81219500D01*
X129333713Y-81219500D01*
X129285042Y-81227208D01*
X129123760Y-81252753D01*
X128921585Y-81318444D01*
X128732179Y-81414951D01*
X128560213Y-81539890D01*
X128409890Y-81690213D01*
X128284949Y-81862182D01*
X128280484Y-81870946D01*
X128232509Y-81921742D01*
X128164688Y-81938536D01*
X128098553Y-81915998D01*
X128059516Y-81870946D01*
X128055050Y-81862182D01*
X127930109Y-81690213D01*
X127779786Y-81539890D01*
X127607820Y-81414951D01*
X127418414Y-81318444D01*
X127418413Y-81318443D01*
X127418412Y-81318443D01*
X127216243Y-81252754D01*
X127216241Y-81252753D01*
X127216240Y-81252753D01*
X127054957Y-81227208D01*
X127006287Y-81219500D01*
X126793713Y-81219500D01*
X126745042Y-81227208D01*
X126583760Y-81252753D01*
X126381585Y-81318444D01*
X126192179Y-81414951D01*
X126020213Y-81539890D01*
X125869890Y-81690213D01*
X125744949Y-81862182D01*
X125740484Y-81870946D01*
X125692509Y-81921742D01*
X125624688Y-81938536D01*
X125558553Y-81915998D01*
X125519516Y-81870946D01*
X125515050Y-81862182D01*
X125390109Y-81690213D01*
X125239786Y-81539890D01*
X125067820Y-81414951D01*
X124878414Y-81318444D01*
X124878413Y-81318443D01*
X124878412Y-81318443D01*
X124676243Y-81252754D01*
X124676241Y-81252753D01*
X124676240Y-81252753D01*
X124514957Y-81227208D01*
X124466287Y-81219500D01*
X124253713Y-81219500D01*
X124205042Y-81227208D01*
X124043760Y-81252753D01*
X123841585Y-81318444D01*
X123652179Y-81414951D01*
X123480213Y-81539890D01*
X123329890Y-81690213D01*
X123204949Y-81862182D01*
X123200484Y-81870946D01*
X123152509Y-81921742D01*
X123084688Y-81938536D01*
X123018553Y-81915998D01*
X122979516Y-81870946D01*
X122975050Y-81862182D01*
X122850109Y-81690213D01*
X122699786Y-81539890D01*
X122527820Y-81414951D01*
X122338414Y-81318444D01*
X122338413Y-81318443D01*
X122338412Y-81318443D01*
X122136243Y-81252754D01*
X122136241Y-81252753D01*
X122136240Y-81252753D01*
X121974957Y-81227208D01*
X121926287Y-81219500D01*
X121713713Y-81219500D01*
X121665042Y-81227208D01*
X121503760Y-81252753D01*
X121301585Y-81318444D01*
X121112179Y-81414951D01*
X120940213Y-81539890D01*
X120789890Y-81690213D01*
X120664949Y-81862182D01*
X120660484Y-81870946D01*
X120612509Y-81921742D01*
X120544688Y-81938536D01*
X120478553Y-81915998D01*
X120439516Y-81870946D01*
X120435050Y-81862182D01*
X120310109Y-81690213D01*
X120159786Y-81539890D01*
X119987820Y-81414951D01*
X119798414Y-81318444D01*
X119798413Y-81318443D01*
X119798412Y-81318443D01*
X119596243Y-81252754D01*
X119596241Y-81252753D01*
X119596240Y-81252753D01*
X119434957Y-81227208D01*
X119386287Y-81219500D01*
X119173713Y-81219500D01*
X119125042Y-81227208D01*
X118963760Y-81252753D01*
X118761585Y-81318444D01*
X118572179Y-81414951D01*
X118400213Y-81539890D01*
X118249890Y-81690213D01*
X118124949Y-81862182D01*
X118120484Y-81870946D01*
X118072509Y-81921742D01*
X118004688Y-81938536D01*
X117938553Y-81915998D01*
X117899516Y-81870946D01*
X117895050Y-81862182D01*
X117770109Y-81690213D01*
X117619786Y-81539890D01*
X117447820Y-81414951D01*
X117258414Y-81318444D01*
X117258413Y-81318443D01*
X117258412Y-81318443D01*
X117056243Y-81252754D01*
X117056241Y-81252753D01*
X117056240Y-81252753D01*
X116894957Y-81227208D01*
X116846287Y-81219500D01*
X116633713Y-81219500D01*
X116585042Y-81227208D01*
X116423760Y-81252753D01*
X116221585Y-81318444D01*
X116032179Y-81414951D01*
X115860213Y-81539890D01*
X115709890Y-81690213D01*
X115584949Y-81862182D01*
X115580484Y-81870946D01*
X115532509Y-81921742D01*
X115464688Y-81938536D01*
X115398553Y-81915998D01*
X115359516Y-81870946D01*
X115355050Y-81862182D01*
X115230109Y-81690213D01*
X115079786Y-81539890D01*
X114907820Y-81414951D01*
X114718414Y-81318444D01*
X114718413Y-81318443D01*
X114718412Y-81318443D01*
X114516243Y-81252754D01*
X114516241Y-81252753D01*
X114516240Y-81252753D01*
X114354957Y-81227208D01*
X114306287Y-81219500D01*
X114093713Y-81219500D01*
X114045042Y-81227208D01*
X113883760Y-81252753D01*
X113681585Y-81318444D01*
X113492179Y-81414951D01*
X113320213Y-81539890D01*
X113169890Y-81690213D01*
X113044949Y-81862182D01*
X113040484Y-81870946D01*
X112992509Y-81921742D01*
X112924688Y-81938536D01*
X112858553Y-81915998D01*
X112819516Y-81870946D01*
X112815050Y-81862182D01*
X112690109Y-81690213D01*
X112539786Y-81539890D01*
X112367820Y-81414951D01*
X112178414Y-81318444D01*
X112178413Y-81318443D01*
X112178412Y-81318443D01*
X111976243Y-81252754D01*
X111976241Y-81252753D01*
X111976240Y-81252753D01*
X111814957Y-81227208D01*
X111766287Y-81219500D01*
X111553713Y-81219500D01*
X111505042Y-81227208D01*
X111343760Y-81252753D01*
X111141585Y-81318444D01*
X110952179Y-81414951D01*
X110780213Y-81539890D01*
X110629890Y-81690213D01*
X110504949Y-81862182D01*
X110500484Y-81870946D01*
X110452509Y-81921742D01*
X110384688Y-81938536D01*
X110318553Y-81915998D01*
X110279516Y-81870946D01*
X110275050Y-81862182D01*
X110150109Y-81690213D01*
X109999786Y-81539890D01*
X109827820Y-81414951D01*
X109638414Y-81318444D01*
X109638413Y-81318443D01*
X109638412Y-81318443D01*
X109436243Y-81252754D01*
X109436241Y-81252753D01*
X109436240Y-81252753D01*
X109274957Y-81227208D01*
X109226287Y-81219500D01*
X109013713Y-81219500D01*
X108965042Y-81227208D01*
X108803760Y-81252753D01*
X108601585Y-81318444D01*
X108412179Y-81414951D01*
X108240213Y-81539890D01*
X108089890Y-81690213D01*
X107964949Y-81862182D01*
X107960484Y-81870946D01*
X107912509Y-81921742D01*
X107844688Y-81938536D01*
X107778553Y-81915998D01*
X107739516Y-81870946D01*
X107735050Y-81862182D01*
X107610109Y-81690213D01*
X107459786Y-81539890D01*
X107287820Y-81414951D01*
X107098414Y-81318444D01*
X107098413Y-81318443D01*
X107098412Y-81318443D01*
X106896243Y-81252754D01*
X106896241Y-81252753D01*
X106896240Y-81252753D01*
X106734957Y-81227208D01*
X106686287Y-81219500D01*
X106473713Y-81219500D01*
X106425042Y-81227208D01*
X106263760Y-81252753D01*
X106061585Y-81318444D01*
X105872179Y-81414951D01*
X105700213Y-81539890D01*
X105549890Y-81690213D01*
X105424949Y-81862182D01*
X105420202Y-81871499D01*
X105372227Y-81922293D01*
X105304405Y-81939087D01*
X105238271Y-81916548D01*
X105199234Y-81871495D01*
X105194626Y-81862452D01*
X105155270Y-81808282D01*
X105155269Y-81808282D01*
X104522962Y-82440590D01*
X104505925Y-82377007D01*
X104440099Y-82262993D01*
X104347007Y-82169901D01*
X104232993Y-82104075D01*
X104169408Y-82087037D01*
X104801716Y-81454728D01*
X104747550Y-81415375D01*
X104558217Y-81318904D01*
X104351493Y-81251736D01*
X104351891Y-81250510D01*
X104296431Y-81218661D01*
X104264271Y-81156632D01*
X104270752Y-81087064D01*
X104298293Y-81045205D01*
X110656680Y-74686819D01*
X110718003Y-74653334D01*
X110744361Y-74650500D01*
X170225500Y-74650500D01*
X170292539Y-74670185D01*
X170338294Y-74722989D01*
X170349500Y-74774500D01*
X170349500Y-107835637D01*
X170329815Y-107902676D01*
X170313181Y-107923318D01*
X169524795Y-108711703D01*
X169463472Y-108745188D01*
X169393780Y-108740204D01*
X169337847Y-108698332D01*
X169319031Y-108658257D01*
X169318264Y-108658507D01*
X169251095Y-108451782D01*
X169154624Y-108262449D01*
X169115270Y-108208282D01*
X169115269Y-108208282D01*
X168482962Y-108840590D01*
X168465925Y-108777007D01*
X168400099Y-108662993D01*
X168307007Y-108569901D01*
X168192993Y-108504075D01*
X168129409Y-108487037D01*
X168761716Y-107854728D01*
X168707547Y-107815373D01*
X168707547Y-107815372D01*
X168698500Y-107810763D01*
X168647706Y-107762788D01*
X168630912Y-107694966D01*
X168653451Y-107628832D01*
X168698508Y-107589793D01*
X168707816Y-107585051D01*
X168813388Y-107508349D01*
X168879786Y-107460109D01*
X168879788Y-107460106D01*
X168879792Y-107460104D01*
X169030104Y-107309792D01*
X169030106Y-107309788D01*
X169030109Y-107309786D01*
X169155048Y-107137820D01*
X169155047Y-107137820D01*
X169155051Y-107137816D01*
X169251557Y-106948412D01*
X169317246Y-106746243D01*
X169350500Y-106536287D01*
X169350500Y-106323713D01*
X169317246Y-106113757D01*
X169251557Y-105911588D01*
X169155051Y-105722184D01*
X169155049Y-105722181D01*
X169155048Y-105722179D01*
X169030109Y-105550213D01*
X168879786Y-105399890D01*
X168707820Y-105274951D01*
X168707115Y-105274591D01*
X168699054Y-105270485D01*
X168648259Y-105222512D01*
X168631463Y-105154692D01*
X168653999Y-105088556D01*
X168699054Y-105049515D01*
X168707816Y-105045051D01*
X168729789Y-105029086D01*
X168879786Y-104920109D01*
X168879788Y-104920106D01*
X168879792Y-104920104D01*
X169030104Y-104769792D01*
X169030106Y-104769788D01*
X169030109Y-104769786D01*
X169155048Y-104597820D01*
X169155047Y-104597820D01*
X169155051Y-104597816D01*
X169251557Y-104408412D01*
X169317246Y-104206243D01*
X169350500Y-103996287D01*
X169350500Y-103783713D01*
X169317246Y-103573757D01*
X169251557Y-103371588D01*
X169155051Y-103182184D01*
X169155049Y-103182181D01*
X169155048Y-103182179D01*
X169030109Y-103010213D01*
X168879786Y-102859890D01*
X168707820Y-102734951D01*
X168707115Y-102734591D01*
X168699054Y-102730485D01*
X168648259Y-102682512D01*
X168631463Y-102614692D01*
X168653999Y-102548556D01*
X168699054Y-102509515D01*
X168707816Y-102505051D01*
X168729789Y-102489086D01*
X168879786Y-102380109D01*
X168879788Y-102380106D01*
X168879792Y-102380104D01*
X169030104Y-102229792D01*
X169030106Y-102229788D01*
X169030109Y-102229786D01*
X169155048Y-102057820D01*
X169155047Y-102057820D01*
X169155051Y-102057816D01*
X169251557Y-101868412D01*
X169317246Y-101666243D01*
X169350500Y-101456287D01*
X169350500Y-101243713D01*
X169317246Y-101033757D01*
X169303506Y-100991473D01*
X169303072Y-100976262D01*
X169297754Y-100962003D01*
X169302095Y-100942047D01*
X169301512Y-100921635D01*
X169309599Y-100907548D01*
X169312606Y-100893730D01*
X169333754Y-100865479D01*
X169509506Y-100689728D01*
X169509511Y-100689724D01*
X169519714Y-100679520D01*
X169519716Y-100679520D01*
X169631520Y-100567716D01*
X169635557Y-100560723D01*
X169691765Y-100463369D01*
X169691766Y-100463366D01*
X169710576Y-100430787D01*
X169710577Y-100430785D01*
X169751501Y-100278057D01*
X169751501Y-100119942D01*
X169751501Y-100112347D01*
X169751500Y-100112329D01*
X169751500Y-95714185D01*
X169751500Y-95714183D01*
X169710577Y-95561456D01*
X169710573Y-95561449D01*
X169631524Y-95424530D01*
X169631521Y-95424526D01*
X169631520Y-95424524D01*
X169519716Y-95312720D01*
X169519715Y-95312719D01*
X169515385Y-95308389D01*
X169515374Y-95308379D01*
X169011126Y-94804131D01*
X168977641Y-94742808D01*
X168982625Y-94673116D01*
X169011126Y-94628769D01*
X169030104Y-94609792D01*
X169030106Y-94609788D01*
X169030109Y-94609786D01*
X169155048Y-94437820D01*
X169155047Y-94437820D01*
X169155051Y-94437816D01*
X169251557Y-94248412D01*
X169317246Y-94046243D01*
X169350500Y-93836287D01*
X169350500Y-93623713D01*
X169317246Y-93413757D01*
X169251557Y-93211588D01*
X169155051Y-93022184D01*
X169155049Y-93022181D01*
X169155048Y-93022179D01*
X169030109Y-92850213D01*
X168879786Y-92699890D01*
X168707820Y-92574951D01*
X168707115Y-92574591D01*
X168699054Y-92570485D01*
X168648259Y-92522512D01*
X168631463Y-92454692D01*
X168653999Y-92388556D01*
X168699054Y-92349515D01*
X168707816Y-92345051D01*
X168729789Y-92329086D01*
X168879786Y-92220109D01*
X168879788Y-92220106D01*
X168879792Y-92220104D01*
X169030104Y-92069792D01*
X169030106Y-92069788D01*
X169030109Y-92069786D01*
X169155048Y-91897820D01*
X169155047Y-91897820D01*
X169155051Y-91897816D01*
X169251557Y-91708412D01*
X169317246Y-91506243D01*
X169350500Y-91296287D01*
X169350500Y-91083713D01*
X169317246Y-90873757D01*
X169251557Y-90671588D01*
X169155051Y-90482184D01*
X169155049Y-90482181D01*
X169155048Y-90482179D01*
X169030109Y-90310213D01*
X168879786Y-90159890D01*
X168707820Y-90034951D01*
X168707115Y-90034591D01*
X168699054Y-90030485D01*
X168648259Y-89982512D01*
X168631463Y-89914692D01*
X168653999Y-89848556D01*
X168699054Y-89809515D01*
X168707816Y-89805051D01*
X168729789Y-89789086D01*
X168879786Y-89680109D01*
X168879788Y-89680106D01*
X168879792Y-89680104D01*
X169030104Y-89529792D01*
X169030106Y-89529788D01*
X169030109Y-89529786D01*
X169155048Y-89357820D01*
X169155047Y-89357820D01*
X169155051Y-89357816D01*
X169251557Y-89168412D01*
X169317246Y-88966243D01*
X169350500Y-88756287D01*
X169350500Y-88543713D01*
X169317246Y-88333757D01*
X169251557Y-88131588D01*
X169155051Y-87942184D01*
X169155049Y-87942181D01*
X169155048Y-87942179D01*
X169030109Y-87770213D01*
X168879786Y-87619890D01*
X168707820Y-87494951D01*
X168707115Y-87494591D01*
X168699054Y-87490485D01*
X168648259Y-87442512D01*
X168631463Y-87374692D01*
X168653999Y-87308556D01*
X168699054Y-87269515D01*
X168707816Y-87265051D01*
X168729789Y-87249086D01*
X168879786Y-87140109D01*
X168879788Y-87140106D01*
X168879792Y-87140104D01*
X169030104Y-86989792D01*
X169030106Y-86989788D01*
X169030109Y-86989786D01*
X169155048Y-86817820D01*
X169155047Y-86817820D01*
X169155051Y-86817816D01*
X169251557Y-86628412D01*
X169317246Y-86426243D01*
X169350500Y-86216287D01*
X169350500Y-86003713D01*
X169317246Y-85793757D01*
X169251557Y-85591588D01*
X169155051Y-85402184D01*
X169155049Y-85402181D01*
X169155048Y-85402179D01*
X169030109Y-85230213D01*
X168879786Y-85079890D01*
X168707820Y-84954951D01*
X168707115Y-84954591D01*
X168699054Y-84950485D01*
X168648259Y-84902512D01*
X168631463Y-84834692D01*
X168653999Y-84768556D01*
X168699054Y-84729515D01*
X168707816Y-84725051D01*
X168729789Y-84709086D01*
X168879786Y-84600109D01*
X168879788Y-84600106D01*
X168879792Y-84600104D01*
X169030104Y-84449792D01*
X169030106Y-84449788D01*
X169030109Y-84449786D01*
X169155048Y-84277820D01*
X169155047Y-84277820D01*
X169155051Y-84277816D01*
X169251557Y-84088412D01*
X169317246Y-83886243D01*
X169350500Y-83676287D01*
X169350500Y-83463713D01*
X169317246Y-83253757D01*
X169251557Y-83051588D01*
X169155051Y-82862184D01*
X169155049Y-82862181D01*
X169155048Y-82862179D01*
X169030109Y-82690213D01*
X168879786Y-82539890D01*
X168707820Y-82414951D01*
X168707115Y-82414591D01*
X168699054Y-82410485D01*
X168648259Y-82362512D01*
X168631463Y-82294692D01*
X168653999Y-82228556D01*
X168699054Y-82189515D01*
X168707816Y-82185051D01*
X168819271Y-82104075D01*
X168879786Y-82060109D01*
X168879788Y-82060106D01*
X168879792Y-82060104D01*
X169030104Y-81909792D01*
X169030106Y-81909788D01*
X169030109Y-81909786D01*
X169155048Y-81737820D01*
X169155047Y-81737820D01*
X169155051Y-81737816D01*
X169251557Y-81548412D01*
X169317246Y-81346243D01*
X169350500Y-81136287D01*
X169350500Y-80923713D01*
X169317246Y-80713757D01*
X169251557Y-80511588D01*
X169155051Y-80322184D01*
X169155049Y-80322181D01*
X169155048Y-80322179D01*
X169030109Y-80150213D01*
X168879786Y-79999890D01*
X168707820Y-79874951D01*
X168707115Y-79874591D01*
X168699054Y-79870485D01*
X168648259Y-79822512D01*
X168631463Y-79754692D01*
X168653999Y-79688556D01*
X168699054Y-79649515D01*
X168707816Y-79645051D01*
X168729789Y-79629086D01*
X168879786Y-79520109D01*
X168879788Y-79520106D01*
X168879792Y-79520104D01*
X169030104Y-79369792D01*
X169030106Y-79369788D01*
X169030109Y-79369786D01*
X169155048Y-79197820D01*
X169155047Y-79197820D01*
X169155051Y-79197816D01*
X169251557Y-79008412D01*
X169317246Y-78806243D01*
X169350500Y-78596287D01*
X169350500Y-78383713D01*
X169317246Y-78173757D01*
X169251557Y-77971588D01*
X169155051Y-77782184D01*
X169155049Y-77782181D01*
X169155048Y-77782179D01*
X169030109Y-77610213D01*
X168879786Y-77459890D01*
X168707820Y-77334951D01*
X168518414Y-77238444D01*
X168518413Y-77238443D01*
X168518412Y-77238443D01*
X168316243Y-77172754D01*
X168316241Y-77172753D01*
X168316240Y-77172753D01*
X168154957Y-77147208D01*
X168106287Y-77139500D01*
X167893713Y-77139500D01*
X167845042Y-77147208D01*
X167683760Y-77172753D01*
X167481585Y-77238444D01*
X167292179Y-77334951D01*
X167120213Y-77459890D01*
X166969890Y-77610213D01*
X166844951Y-77782179D01*
X166748444Y-77971585D01*
X166682753Y-78173760D01*
X166649500Y-78383713D01*
X166649500Y-78596286D01*
X166682753Y-78806239D01*
X166748444Y-79008414D01*
X166844951Y-79197820D01*
X166969890Y-79369786D01*
X167120213Y-79520109D01*
X167292182Y-79645050D01*
X167300946Y-79649516D01*
X167351742Y-79697491D01*
X167368536Y-79765312D01*
X167345998Y-79831447D01*
X167300946Y-79870484D01*
X167292182Y-79874949D01*
X167120213Y-79999890D01*
X166969890Y-80150213D01*
X166844951Y-80322179D01*
X166748444Y-80511585D01*
X166682753Y-80713760D01*
X166649500Y-80923713D01*
X166649500Y-81136286D01*
X166671660Y-81276202D01*
X166682754Y-81346243D01*
X166725455Y-81477664D01*
X166748444Y-81548414D01*
X166844951Y-81737820D01*
X166969890Y-81909786D01*
X167120213Y-82060109D01*
X167292182Y-82185050D01*
X167300946Y-82189516D01*
X167351742Y-82237491D01*
X167368536Y-82305312D01*
X167345998Y-82371447D01*
X167300946Y-82410484D01*
X167292182Y-82414949D01*
X167120213Y-82539890D01*
X166969890Y-82690213D01*
X166844951Y-82862179D01*
X166748444Y-83051585D01*
X166682753Y-83253760D01*
X166649500Y-83463713D01*
X166649500Y-83676286D01*
X166679198Y-83863796D01*
X166682754Y-83886243D01*
X166693722Y-83920000D01*
X166748444Y-84088414D01*
X166844951Y-84277820D01*
X166969890Y-84449786D01*
X167120213Y-84600109D01*
X167292182Y-84725050D01*
X167300946Y-84729516D01*
X167351742Y-84777491D01*
X167368536Y-84845312D01*
X167345998Y-84911447D01*
X167300946Y-84950484D01*
X167292182Y-84954949D01*
X167120213Y-85079890D01*
X166969890Y-85230213D01*
X166844951Y-85402179D01*
X166748444Y-85591585D01*
X166682753Y-85793760D01*
X166649500Y-86003713D01*
X166649500Y-86216286D01*
X166682753Y-86426239D01*
X166748444Y-86628414D01*
X166844951Y-86817820D01*
X166969890Y-86989786D01*
X167120213Y-87140109D01*
X167292182Y-87265050D01*
X167300946Y-87269516D01*
X167351742Y-87317491D01*
X167368536Y-87385312D01*
X167345998Y-87451447D01*
X167300946Y-87490484D01*
X167292182Y-87494949D01*
X167120213Y-87619890D01*
X166969890Y-87770213D01*
X166844951Y-87942179D01*
X166748444Y-88131585D01*
X166682753Y-88333760D01*
X166649500Y-88543713D01*
X166649500Y-88756286D01*
X166682753Y-88966239D01*
X166748444Y-89168414D01*
X166844951Y-89357820D01*
X166969890Y-89529786D01*
X167120213Y-89680109D01*
X167292182Y-89805050D01*
X167300946Y-89809516D01*
X167351742Y-89857491D01*
X167368536Y-89925312D01*
X167345998Y-89991447D01*
X167300946Y-90030484D01*
X167292182Y-90034949D01*
X167120213Y-90159890D01*
X166969890Y-90310213D01*
X166844951Y-90482179D01*
X166748444Y-90671585D01*
X166682753Y-90873760D01*
X166649500Y-91083713D01*
X166649500Y-91296286D01*
X166682753Y-91506239D01*
X166748444Y-91708414D01*
X166844951Y-91897820D01*
X166969890Y-92069786D01*
X167120213Y-92220109D01*
X167292182Y-92345050D01*
X167300946Y-92349516D01*
X167351742Y-92397491D01*
X167368536Y-92465312D01*
X167345998Y-92531447D01*
X167300946Y-92570484D01*
X167292182Y-92574949D01*
X167120213Y-92699890D01*
X167120209Y-92699894D01*
X167026923Y-92793181D01*
X166965600Y-92826666D01*
X166939242Y-92829500D01*
X115651303Y-92829500D01*
X115477341Y-92864103D01*
X115477329Y-92864106D01*
X115395392Y-92898045D01*
X115395393Y-92898046D01*
X115313455Y-92931985D01*
X115225040Y-92991063D01*
X115225039Y-92991064D01*
X115165961Y-93030537D01*
X101613317Y-106583181D01*
X101551994Y-106616666D01*
X101525636Y-106619500D01*
X100602129Y-106619500D01*
X100602123Y-106619501D01*
X100542516Y-106625908D01*
X100407671Y-106676202D01*
X100407664Y-106676206D01*
X100292455Y-106762452D01*
X100292452Y-106762455D01*
X100206206Y-106877664D01*
X100206202Y-106877671D01*
X100155908Y-107012517D01*
X100149501Y-107072116D01*
X100149500Y-107072135D01*
X100149500Y-108867870D01*
X100149501Y-108867876D01*
X100155908Y-108927483D01*
X100206202Y-109062328D01*
X100206206Y-109062335D01*
X100292452Y-109177544D01*
X100292455Y-109177547D01*
X100407664Y-109263793D01*
X100407671Y-109263797D01*
X100542517Y-109314091D01*
X100542516Y-109314091D01*
X100549444Y-109314835D01*
X100602127Y-109320500D01*
X102397872Y-109320499D01*
X102457483Y-109314091D01*
X102592331Y-109263796D01*
X102707546Y-109177546D01*
X102793796Y-109062331D01*
X102842810Y-108930916D01*
X102884681Y-108874984D01*
X102950145Y-108850566D01*
X103018418Y-108865417D01*
X103046673Y-108886569D01*
X103160213Y-109000109D01*
X103332179Y-109125048D01*
X103332181Y-109125049D01*
X103332184Y-109125051D01*
X103521588Y-109221557D01*
X103723757Y-109287246D01*
X103933713Y-109320500D01*
X103933714Y-109320500D01*
X104146286Y-109320500D01*
X104146287Y-109320500D01*
X104356243Y-109287246D01*
X104558412Y-109221557D01*
X104747816Y-109125051D01*
X104834138Y-109062335D01*
X104919786Y-109000109D01*
X104919788Y-109000106D01*
X104919792Y-109000104D01*
X105070104Y-108849792D01*
X105070106Y-108849788D01*
X105070109Y-108849786D01*
X105195048Y-108677820D01*
X105195047Y-108677820D01*
X105195051Y-108677816D01*
X105199514Y-108669054D01*
X105247488Y-108618259D01*
X105315308Y-108601463D01*
X105381444Y-108623999D01*
X105420486Y-108669056D01*
X105424951Y-108677820D01*
X105549890Y-108849786D01*
X105700213Y-109000109D01*
X105872179Y-109125048D01*
X105872181Y-109125049D01*
X105872184Y-109125051D01*
X106061588Y-109221557D01*
X106263757Y-109287246D01*
X106473713Y-109320500D01*
X106473714Y-109320500D01*
X106686286Y-109320500D01*
X106686287Y-109320500D01*
X106896243Y-109287246D01*
X107098412Y-109221557D01*
X107287816Y-109125051D01*
X107374138Y-109062335D01*
X107459786Y-109000109D01*
X107459788Y-109000106D01*
X107459792Y-109000104D01*
X107610104Y-108849792D01*
X107610106Y-108849788D01*
X107610109Y-108849786D01*
X107735048Y-108677820D01*
X107735047Y-108677820D01*
X107735051Y-108677816D01*
X107739514Y-108669054D01*
X107787488Y-108618259D01*
X107855308Y-108601463D01*
X107921444Y-108623999D01*
X107960486Y-108669056D01*
X107964951Y-108677820D01*
X108089890Y-108849786D01*
X108240213Y-109000109D01*
X108412179Y-109125048D01*
X108412181Y-109125049D01*
X108412184Y-109125051D01*
X108601588Y-109221557D01*
X108803757Y-109287246D01*
X109013713Y-109320500D01*
X109013714Y-109320500D01*
X109226286Y-109320500D01*
X109226287Y-109320500D01*
X109436243Y-109287246D01*
X109638412Y-109221557D01*
X109827816Y-109125051D01*
X109914138Y-109062335D01*
X109999786Y-109000109D01*
X109999788Y-109000106D01*
X109999792Y-109000104D01*
X110150104Y-108849792D01*
X110150106Y-108849788D01*
X110150109Y-108849786D01*
X110275048Y-108677820D01*
X110275047Y-108677820D01*
X110275051Y-108677816D01*
X110279514Y-108669054D01*
X110327488Y-108618259D01*
X110395308Y-108601463D01*
X110461444Y-108623999D01*
X110500486Y-108669056D01*
X110504951Y-108677820D01*
X110629890Y-108849786D01*
X110780213Y-109000109D01*
X110952179Y-109125048D01*
X110952181Y-109125049D01*
X110952184Y-109125051D01*
X111141588Y-109221557D01*
X111343757Y-109287246D01*
X111553713Y-109320500D01*
X111553714Y-109320500D01*
X111766286Y-109320500D01*
X111766287Y-109320500D01*
X111976243Y-109287246D01*
X112018523Y-109273507D01*
X112088362Y-109271511D01*
X112144521Y-109303756D01*
X115321284Y-112480520D01*
X115321286Y-112480521D01*
X115321290Y-112480524D01*
X115458209Y-112559573D01*
X115458216Y-112559577D01*
X115610943Y-112600501D01*
X115610945Y-112600501D01*
X115776654Y-112600501D01*
X115776670Y-112600500D01*
X159803331Y-112600500D01*
X159803347Y-112600501D01*
X159810943Y-112600501D01*
X159969054Y-112600501D01*
X159969057Y-112600501D01*
X160121785Y-112559577D01*
X160171904Y-112530639D01*
X160258716Y-112480520D01*
X160370520Y-112368716D01*
X160370520Y-112368714D01*
X160380728Y-112358507D01*
X160380730Y-112358504D01*
X166437819Y-106301415D01*
X166499142Y-106267930D01*
X166568834Y-106272914D01*
X166624767Y-106314786D01*
X166649184Y-106380250D01*
X166649500Y-106389096D01*
X166649500Y-106536286D01*
X166673841Y-106689973D01*
X166682754Y-106746243D01*
X166725455Y-106877664D01*
X166748444Y-106948414D01*
X166844951Y-107137820D01*
X166969890Y-107309786D01*
X167120213Y-107460109D01*
X167292179Y-107585048D01*
X167292181Y-107585049D01*
X167292184Y-107585051D01*
X167301493Y-107589794D01*
X167352290Y-107637766D01*
X167369087Y-107705587D01*
X167346552Y-107771722D01*
X167301505Y-107810760D01*
X167292446Y-107815376D01*
X167292440Y-107815380D01*
X167238282Y-107854727D01*
X167238282Y-107854728D01*
X167870591Y-108487037D01*
X167807007Y-108504075D01*
X167692993Y-108569901D01*
X167599901Y-108662993D01*
X167534075Y-108777007D01*
X167517037Y-108840591D01*
X166884728Y-108208282D01*
X166884727Y-108208282D01*
X166845380Y-108262439D01*
X166748904Y-108451782D01*
X166683242Y-108653869D01*
X166683242Y-108653872D01*
X166650000Y-108863753D01*
X166650000Y-109076246D01*
X166683242Y-109286127D01*
X166683242Y-109286130D01*
X166748904Y-109488217D01*
X166845375Y-109677550D01*
X166884728Y-109731716D01*
X167517037Y-109099408D01*
X167534075Y-109162993D01*
X167599901Y-109277007D01*
X167692993Y-109370099D01*
X167807007Y-109435925D01*
X167870590Y-109452962D01*
X167200370Y-110123181D01*
X167139047Y-110156666D01*
X167112698Y-110159500D01*
X167102134Y-110159500D01*
X167102123Y-110159501D01*
X167042516Y-110165908D01*
X166907671Y-110216202D01*
X166907664Y-110216206D01*
X166792455Y-110302452D01*
X166792452Y-110302455D01*
X166706206Y-110417664D01*
X166706202Y-110417671D01*
X166655908Y-110552517D01*
X166649501Y-110612116D01*
X166649500Y-110612135D01*
X166649500Y-112407870D01*
X166649501Y-112407876D01*
X166655908Y-112467483D01*
X166706202Y-112602328D01*
X166706206Y-112602335D01*
X166792452Y-112717544D01*
X166792455Y-112717547D01*
X166907664Y-112803793D01*
X166907671Y-112803797D01*
X167042517Y-112854091D01*
X167042516Y-112854091D01*
X167049444Y-112854835D01*
X167102127Y-112860500D01*
X168897872Y-112860499D01*
X168957483Y-112854091D01*
X169092331Y-112803796D01*
X169207546Y-112717546D01*
X169293796Y-112602331D01*
X169344091Y-112467483D01*
X169350500Y-112407873D01*
X169350499Y-111484360D01*
X169370183Y-111417322D01*
X169386813Y-111396685D01*
X171949464Y-108834036D01*
X171991449Y-108771200D01*
X172007526Y-108747140D01*
X172040138Y-108698332D01*
X172048013Y-108686547D01*
X172081953Y-108604606D01*
X172115895Y-108522666D01*
X172150500Y-108348692D01*
X172150500Y-108171308D01*
X172150500Y-73661309D01*
X172150500Y-73661306D01*
X172150499Y-73661304D01*
X172115896Y-73487341D01*
X172115893Y-73487332D01*
X172048016Y-73323459D01*
X172048009Y-73323446D01*
X171949464Y-73175965D01*
X171949461Y-73175961D01*
X171824038Y-73050538D01*
X171824034Y-73050535D01*
X171676553Y-72951990D01*
X171676540Y-72951983D01*
X171512667Y-72884106D01*
X171512658Y-72884103D01*
X171338694Y-72849500D01*
X171338691Y-72849500D01*
X110408692Y-72849500D01*
X110231309Y-72849500D01*
X110231304Y-72849500D01*
X110057339Y-72884103D01*
X110057323Y-72884108D01*
X109941453Y-72932102D01*
X109941454Y-72932103D01*
X109893454Y-72951986D01*
X109745965Y-73050535D01*
X109745961Y-73050538D01*
X101613319Y-81183181D01*
X101551996Y-81216666D01*
X101525638Y-81219500D01*
X101393713Y-81219500D01*
X101345042Y-81227208D01*
X101183760Y-81252753D01*
X100981585Y-81318444D01*
X100792179Y-81414951D01*
X100620213Y-81539890D01*
X100469890Y-81690213D01*
X100344951Y-81862179D01*
X100248444Y-82051585D01*
X100182753Y-82253760D01*
X100149500Y-82463713D01*
X74000500Y-82463713D01*
X74000500Y-68878711D01*
X75649500Y-68878711D01*
X75649500Y-69121288D01*
X75681161Y-69361785D01*
X75743947Y-69596104D01*
X75836773Y-69820205D01*
X75836776Y-69820212D01*
X75958064Y-70030289D01*
X75958066Y-70030292D01*
X75958067Y-70030293D01*
X76105733Y-70222736D01*
X76105739Y-70222743D01*
X76277256Y-70394260D01*
X76277262Y-70394265D01*
X76469711Y-70541936D01*
X76679788Y-70663224D01*
X76903900Y-70756054D01*
X77138211Y-70818838D01*
X77318586Y-70842584D01*
X77378711Y-70850500D01*
X77378712Y-70850500D01*
X77621289Y-70850500D01*
X77669388Y-70844167D01*
X77861789Y-70818838D01*
X78096100Y-70756054D01*
X78320212Y-70663224D01*
X78530289Y-70541936D01*
X78722738Y-70394265D01*
X78894265Y-70222738D01*
X79041936Y-70030289D01*
X79163224Y-69820212D01*
X79256054Y-69596100D01*
X79318838Y-69361789D01*
X79350500Y-69121288D01*
X79350500Y-68878712D01*
X79350500Y-68878711D01*
X167649500Y-68878711D01*
X167649500Y-69121288D01*
X167681161Y-69361785D01*
X167743947Y-69596104D01*
X167836773Y-69820205D01*
X167836776Y-69820212D01*
X167958064Y-70030289D01*
X167958066Y-70030292D01*
X167958067Y-70030293D01*
X168105733Y-70222736D01*
X168105739Y-70222743D01*
X168277256Y-70394260D01*
X168277262Y-70394265D01*
X168469711Y-70541936D01*
X168679788Y-70663224D01*
X168903900Y-70756054D01*
X169138211Y-70818838D01*
X169318586Y-70842584D01*
X169378711Y-70850500D01*
X169378712Y-70850500D01*
X169621289Y-70850500D01*
X169669388Y-70844167D01*
X169861789Y-70818838D01*
X170096100Y-70756054D01*
X170320212Y-70663224D01*
X170530289Y-70541936D01*
X170722738Y-70394265D01*
X170894265Y-70222738D01*
X171041936Y-70030289D01*
X171163224Y-69820212D01*
X171256054Y-69596100D01*
X171318838Y-69361789D01*
X171350500Y-69121288D01*
X171350500Y-68878712D01*
X171318838Y-68638211D01*
X171256054Y-68403900D01*
X171163224Y-68179788D01*
X171041936Y-67969711D01*
X170894265Y-67777262D01*
X170894260Y-67777256D01*
X170722743Y-67605739D01*
X170722736Y-67605733D01*
X170530293Y-67458067D01*
X170530292Y-67458066D01*
X170530289Y-67458064D01*
X170320212Y-67336776D01*
X170320205Y-67336773D01*
X170096104Y-67243947D01*
X169861785Y-67181161D01*
X169621289Y-67149500D01*
X169621288Y-67149500D01*
X169378712Y-67149500D01*
X169378711Y-67149500D01*
X169138214Y-67181161D01*
X168903895Y-67243947D01*
X168679794Y-67336773D01*
X168679785Y-67336777D01*
X168469706Y-67458067D01*
X168277263Y-67605733D01*
X168277256Y-67605739D01*
X168105739Y-67777256D01*
X168105733Y-67777263D01*
X167958067Y-67969706D01*
X167836777Y-68179785D01*
X167836773Y-68179794D01*
X167743947Y-68403895D01*
X167681161Y-68638214D01*
X167649500Y-68878711D01*
X79350500Y-68878711D01*
X79318838Y-68638211D01*
X79256054Y-68403900D01*
X79163224Y-68179788D01*
X79041936Y-67969711D01*
X78894265Y-67777262D01*
X78894260Y-67777256D01*
X78722743Y-67605739D01*
X78722736Y-67605733D01*
X78530293Y-67458067D01*
X78530292Y-67458066D01*
X78530289Y-67458064D01*
X78320212Y-67336776D01*
X78320205Y-67336773D01*
X78096104Y-67243947D01*
X77861785Y-67181161D01*
X77621289Y-67149500D01*
X77621288Y-67149500D01*
X77378712Y-67149500D01*
X77378711Y-67149500D01*
X77138214Y-67181161D01*
X76903895Y-67243947D01*
X76679794Y-67336773D01*
X76679785Y-67336777D01*
X76469706Y-67458067D01*
X76277263Y-67605733D01*
X76277256Y-67605739D01*
X76105739Y-67777256D01*
X76105733Y-67777263D01*
X75958067Y-67969706D01*
X75836777Y-68179785D01*
X75836773Y-68179794D01*
X75743947Y-68403895D01*
X75681161Y-68638214D01*
X75649500Y-68878711D01*
X74000500Y-68878711D01*
X74000500Y-65624500D01*
X74020185Y-65557461D01*
X74072989Y-65511706D01*
X74124500Y-65500500D01*
X172875500Y-65500500D01*
X172942539Y-65520185D01*
G37*
%TD.AperFunction*%
%TD*%
M02*
