%TF.GenerationSoftware,KiCad,Pcbnew,9.0.2*%
%TF.CreationDate,2025-12-26T11:33:12+08:00*%
%TF.ProjectId,Capstone,43617073-746f-46e6-952e-6b696361645f,rev?*%
%TF.SameCoordinates,Original*%
%TF.FileFunction,Legend,Top*%
%TF.FilePolarity,Positive*%
%FSLAX46Y46*%
G04 Gerber Fmt 4.6, Leading zero omitted, Abs format (unit mm)*
G04 Created by KiCad (PCBNEW 9.0.2) date 2025-12-26 11:33:12*
%MOMM*%
%LPD*%
G01*
G04 APERTURE LIST*
%ADD10C,0.100000*%
%ADD11C,0.120000*%
G04 APERTURE END LIST*
D10*
X123553884Y-119598609D02*
X123887217Y-119598609D01*
X124030074Y-120122419D02*
X123553884Y-120122419D01*
X123553884Y-120122419D02*
X123553884Y-119122419D01*
X123553884Y-119122419D02*
X124030074Y-119122419D01*
X124411027Y-119217657D02*
X124458646Y-119170038D01*
X124458646Y-119170038D02*
X124553884Y-119122419D01*
X124553884Y-119122419D02*
X124791979Y-119122419D01*
X124791979Y-119122419D02*
X124887217Y-119170038D01*
X124887217Y-119170038D02*
X124934836Y-119217657D01*
X124934836Y-119217657D02*
X124982455Y-119312895D01*
X124982455Y-119312895D02*
X124982455Y-119408133D01*
X124982455Y-119408133D02*
X124934836Y-119550990D01*
X124934836Y-119550990D02*
X124363408Y-120122419D01*
X124363408Y-120122419D02*
X124982455Y-120122419D01*
X125934836Y-119170038D02*
X125839598Y-119122419D01*
X125839598Y-119122419D02*
X125696741Y-119122419D01*
X125696741Y-119122419D02*
X125553884Y-119170038D01*
X125553884Y-119170038D02*
X125458646Y-119265276D01*
X125458646Y-119265276D02*
X125411027Y-119360514D01*
X125411027Y-119360514D02*
X125363408Y-119550990D01*
X125363408Y-119550990D02*
X125363408Y-119693847D01*
X125363408Y-119693847D02*
X125411027Y-119884323D01*
X125411027Y-119884323D02*
X125458646Y-119979561D01*
X125458646Y-119979561D02*
X125553884Y-120074800D01*
X125553884Y-120074800D02*
X125696741Y-120122419D01*
X125696741Y-120122419D02*
X125791979Y-120122419D01*
X125791979Y-120122419D02*
X125934836Y-120074800D01*
X125934836Y-120074800D02*
X125982455Y-120027180D01*
X125982455Y-120027180D02*
X125982455Y-119693847D01*
X125982455Y-119693847D02*
X125791979Y-119693847D01*
X126601503Y-119122419D02*
X126696741Y-119122419D01*
X126696741Y-119122419D02*
X126791979Y-119170038D01*
X126791979Y-119170038D02*
X126839598Y-119217657D01*
X126839598Y-119217657D02*
X126887217Y-119312895D01*
X126887217Y-119312895D02*
X126934836Y-119503371D01*
X126934836Y-119503371D02*
X126934836Y-119741466D01*
X126934836Y-119741466D02*
X126887217Y-119931942D01*
X126887217Y-119931942D02*
X126839598Y-120027180D01*
X126839598Y-120027180D02*
X126791979Y-120074800D01*
X126791979Y-120074800D02*
X126696741Y-120122419D01*
X126696741Y-120122419D02*
X126601503Y-120122419D01*
X126601503Y-120122419D02*
X126506265Y-120074800D01*
X126506265Y-120074800D02*
X126458646Y-120027180D01*
X126458646Y-120027180D02*
X126411027Y-119931942D01*
X126411027Y-119931942D02*
X126363408Y-119741466D01*
X126363408Y-119741466D02*
X126363408Y-119503371D01*
X126363408Y-119503371D02*
X126411027Y-119312895D01*
X126411027Y-119312895D02*
X126458646Y-119217657D01*
X126458646Y-119217657D02*
X126506265Y-119170038D01*
X126506265Y-119170038D02*
X126601503Y-119122419D01*
X127268170Y-119122419D02*
X127934836Y-119122419D01*
X127934836Y-119122419D02*
X127506265Y-120122419D01*
X166911027Y-75122419D02*
X167482455Y-75122419D01*
X167196741Y-76122419D02*
X167196741Y-75122419D01*
X168149122Y-75598609D02*
X167815789Y-75598609D01*
X167815789Y-76122419D02*
X167815789Y-75122419D01*
X167815789Y-75122419D02*
X168291979Y-75122419D01*
X168530075Y-75122419D02*
X169101503Y-75122419D01*
X168815789Y-76122419D02*
X168815789Y-75122419D01*
X92553884Y-107848609D02*
X92887217Y-107848609D01*
X93030074Y-108372419D02*
X92553884Y-108372419D01*
X92553884Y-108372419D02*
X92553884Y-107372419D01*
X92553884Y-107372419D02*
X93030074Y-107372419D01*
X93411027Y-108324800D02*
X93553884Y-108372419D01*
X93553884Y-108372419D02*
X93791979Y-108372419D01*
X93791979Y-108372419D02*
X93887217Y-108324800D01*
X93887217Y-108324800D02*
X93934836Y-108277180D01*
X93934836Y-108277180D02*
X93982455Y-108181942D01*
X93982455Y-108181942D02*
X93982455Y-108086704D01*
X93982455Y-108086704D02*
X93934836Y-107991466D01*
X93934836Y-107991466D02*
X93887217Y-107943847D01*
X93887217Y-107943847D02*
X93791979Y-107896228D01*
X93791979Y-107896228D02*
X93601503Y-107848609D01*
X93601503Y-107848609D02*
X93506265Y-107800990D01*
X93506265Y-107800990D02*
X93458646Y-107753371D01*
X93458646Y-107753371D02*
X93411027Y-107658133D01*
X93411027Y-107658133D02*
X93411027Y-107562895D01*
X93411027Y-107562895D02*
X93458646Y-107467657D01*
X93458646Y-107467657D02*
X93506265Y-107420038D01*
X93506265Y-107420038D02*
X93601503Y-107372419D01*
X93601503Y-107372419D02*
X93839598Y-107372419D01*
X93839598Y-107372419D02*
X93982455Y-107420038D01*
X94411027Y-108372419D02*
X94411027Y-107372419D01*
X94411027Y-107372419D02*
X94791979Y-107372419D01*
X94791979Y-107372419D02*
X94887217Y-107420038D01*
X94887217Y-107420038D02*
X94934836Y-107467657D01*
X94934836Y-107467657D02*
X94982455Y-107562895D01*
X94982455Y-107562895D02*
X94982455Y-107705752D01*
X94982455Y-107705752D02*
X94934836Y-107800990D01*
X94934836Y-107800990D02*
X94887217Y-107848609D01*
X94887217Y-107848609D02*
X94791979Y-107896228D01*
X94791979Y-107896228D02*
X94411027Y-107896228D01*
X95172932Y-108467657D02*
X95934836Y-108467657D01*
X96649122Y-108372419D02*
X96172932Y-108372419D01*
X96172932Y-108372419D02*
X96172932Y-107372419D01*
X96982456Y-107848609D02*
X97315789Y-107848609D01*
X97458646Y-108372419D02*
X96982456Y-108372419D01*
X96982456Y-108372419D02*
X96982456Y-107372419D01*
X96982456Y-107372419D02*
X97458646Y-107372419D01*
X98220551Y-107848609D02*
X97887218Y-107848609D01*
X97887218Y-108372419D02*
X97887218Y-107372419D01*
X97887218Y-107372419D02*
X98363408Y-107372419D01*
X98601504Y-107372419D02*
X99172932Y-107372419D01*
X98887218Y-108372419D02*
X98887218Y-107372419D01*
X91553884Y-82598609D02*
X91887217Y-82598609D01*
X92030074Y-83122419D02*
X91553884Y-83122419D01*
X91553884Y-83122419D02*
X91553884Y-82122419D01*
X91553884Y-82122419D02*
X92030074Y-82122419D01*
X92411027Y-83074800D02*
X92553884Y-83122419D01*
X92553884Y-83122419D02*
X92791979Y-83122419D01*
X92791979Y-83122419D02*
X92887217Y-83074800D01*
X92887217Y-83074800D02*
X92934836Y-83027180D01*
X92934836Y-83027180D02*
X92982455Y-82931942D01*
X92982455Y-82931942D02*
X92982455Y-82836704D01*
X92982455Y-82836704D02*
X92934836Y-82741466D01*
X92934836Y-82741466D02*
X92887217Y-82693847D01*
X92887217Y-82693847D02*
X92791979Y-82646228D01*
X92791979Y-82646228D02*
X92601503Y-82598609D01*
X92601503Y-82598609D02*
X92506265Y-82550990D01*
X92506265Y-82550990D02*
X92458646Y-82503371D01*
X92458646Y-82503371D02*
X92411027Y-82408133D01*
X92411027Y-82408133D02*
X92411027Y-82312895D01*
X92411027Y-82312895D02*
X92458646Y-82217657D01*
X92458646Y-82217657D02*
X92506265Y-82170038D01*
X92506265Y-82170038D02*
X92601503Y-82122419D01*
X92601503Y-82122419D02*
X92839598Y-82122419D01*
X92839598Y-82122419D02*
X92982455Y-82170038D01*
X93411027Y-83122419D02*
X93411027Y-82122419D01*
X93411027Y-82122419D02*
X93791979Y-82122419D01*
X93791979Y-82122419D02*
X93887217Y-82170038D01*
X93887217Y-82170038D02*
X93934836Y-82217657D01*
X93934836Y-82217657D02*
X93982455Y-82312895D01*
X93982455Y-82312895D02*
X93982455Y-82455752D01*
X93982455Y-82455752D02*
X93934836Y-82550990D01*
X93934836Y-82550990D02*
X93887217Y-82598609D01*
X93887217Y-82598609D02*
X93791979Y-82646228D01*
X93791979Y-82646228D02*
X93411027Y-82646228D01*
X94172932Y-83217657D02*
X94934836Y-83217657D01*
X95744360Y-83122419D02*
X95411027Y-82646228D01*
X95172932Y-83122419D02*
X95172932Y-82122419D01*
X95172932Y-82122419D02*
X95553884Y-82122419D01*
X95553884Y-82122419D02*
X95649122Y-82170038D01*
X95649122Y-82170038D02*
X95696741Y-82217657D01*
X95696741Y-82217657D02*
X95744360Y-82312895D01*
X95744360Y-82312895D02*
X95744360Y-82455752D01*
X95744360Y-82455752D02*
X95696741Y-82550990D01*
X95696741Y-82550990D02*
X95649122Y-82598609D01*
X95649122Y-82598609D02*
X95553884Y-82646228D01*
X95553884Y-82646228D02*
X95172932Y-82646228D01*
X96172932Y-83122419D02*
X96172932Y-82122419D01*
X97172931Y-82170038D02*
X97077693Y-82122419D01*
X97077693Y-82122419D02*
X96934836Y-82122419D01*
X96934836Y-82122419D02*
X96791979Y-82170038D01*
X96791979Y-82170038D02*
X96696741Y-82265276D01*
X96696741Y-82265276D02*
X96649122Y-82360514D01*
X96649122Y-82360514D02*
X96601503Y-82550990D01*
X96601503Y-82550990D02*
X96601503Y-82693847D01*
X96601503Y-82693847D02*
X96649122Y-82884323D01*
X96649122Y-82884323D02*
X96696741Y-82979561D01*
X96696741Y-82979561D02*
X96791979Y-83074800D01*
X96791979Y-83074800D02*
X96934836Y-83122419D01*
X96934836Y-83122419D02*
X97030074Y-83122419D01*
X97030074Y-83122419D02*
X97172931Y-83074800D01*
X97172931Y-83074800D02*
X97220550Y-83027180D01*
X97220550Y-83027180D02*
X97220550Y-82693847D01*
X97220550Y-82693847D02*
X97030074Y-82693847D01*
X97649122Y-83122419D02*
X97649122Y-82122419D01*
X97649122Y-82598609D02*
X98220550Y-82598609D01*
X98220550Y-83122419D02*
X98220550Y-82122419D01*
X98553884Y-82122419D02*
X99125312Y-82122419D01*
X98839598Y-83122419D02*
X98839598Y-82122419D01*
D11*
%TO.C,J1*%
X100170000Y-106640000D02*
X101500000Y-106640000D01*
X100170000Y-107970000D02*
X100170000Y-106640000D01*
X102770000Y-106640000D02*
X138390000Y-106640000D01*
X102770000Y-109300000D02*
X102770000Y-106640000D01*
X102770000Y-109300000D02*
X138390000Y-109300000D01*
X138390000Y-109300000D02*
X138390000Y-106640000D01*
%TO.C,J3*%
X166670000Y-110240000D02*
X166670000Y-77160000D01*
X166670000Y-112840000D02*
X166670000Y-111510000D01*
X168000000Y-112840000D02*
X166670000Y-112840000D01*
X169330000Y-77160000D02*
X166670000Y-77160000D01*
X169330000Y-110240000D02*
X166670000Y-110240000D01*
X169330000Y-110240000D02*
X169330000Y-77160000D01*
%TO.C,J2*%
X100170000Y-81240000D02*
X100170000Y-83900000D01*
X135790000Y-81240000D02*
X100170000Y-81240000D01*
X135790000Y-81240000D02*
X135790000Y-83900000D01*
X135790000Y-83900000D02*
X100170000Y-83900000D01*
X138390000Y-82570000D02*
X138390000Y-83900000D01*
X138390000Y-83900000D02*
X137060000Y-83900000D01*
%TD*%
M02*
