%TF.GenerationSoftware,KiCad,Pcbnew,9.0.2*%
%TF.CreationDate,2025-12-26T11:33:12+08:00*%
%TF.ProjectId,Capstone,43617073-746f-46e6-952e-6b696361645f,rev?*%
%TF.SameCoordinates,Original*%
%TF.FileFunction,Soldermask,Bot*%
%TF.FilePolarity,Negative*%
%FSLAX46Y46*%
G04 Gerber Fmt 4.6, Leading zero omitted, Abs format (unit mm)*
G04 Created by KiCad (PCBNEW 9.0.2) date 2025-12-26 11:33:12*
%MOMM*%
%LPD*%
G01*
G04 APERTURE LIST*
%ADD10C,3.200000*%
%ADD11R,1.700000X1.700000*%
%ADD12C,1.700000*%
G04 APERTURE END LIST*
D10*
%TO.C,REF\u002A\u002A*%
X169500000Y-121000000D03*
%TD*%
%TO.C,REF\u002A\u002A*%
X169500000Y-69000000D03*
%TD*%
%TO.C,REF\u002A\u002A*%
X77500000Y-121000000D03*
%TD*%
%TO.C,REF\u002A\u002A*%
X77500000Y-69000000D03*
%TD*%
D11*
%TO.C,J1*%
X101500000Y-107970000D03*
D12*
X104040000Y-107970000D03*
X106580000Y-107970000D03*
X109120000Y-107970000D03*
X111660000Y-107970000D03*
X114200000Y-107970000D03*
X116740000Y-107970000D03*
X119280000Y-107970000D03*
X121820000Y-107970000D03*
X124360000Y-107970000D03*
X126900000Y-107970000D03*
X129440000Y-107970000D03*
X131980000Y-107970000D03*
X134520000Y-107970000D03*
X137060000Y-107970000D03*
%TD*%
D11*
%TO.C,J3*%
X168000000Y-111510000D03*
D12*
X168000000Y-108970000D03*
X168000000Y-106430000D03*
X168000000Y-103890000D03*
X168000000Y-101350000D03*
X168000000Y-98810000D03*
X168000000Y-96270000D03*
X168000000Y-93730000D03*
X168000000Y-91190000D03*
X168000000Y-88650000D03*
X168000000Y-86110000D03*
X168000000Y-83570000D03*
X168000000Y-81030000D03*
X168000000Y-78490000D03*
%TD*%
D11*
%TO.C,J2*%
X137060000Y-82570000D03*
D12*
X134520000Y-82570000D03*
X131980000Y-82570000D03*
X129440000Y-82570000D03*
X126900000Y-82570000D03*
X124360000Y-82570000D03*
X121820000Y-82570000D03*
X119280000Y-82570000D03*
X116740000Y-82570000D03*
X114200000Y-82570000D03*
X111660000Y-82570000D03*
X109120000Y-82570000D03*
X106580000Y-82570000D03*
X104040000Y-82570000D03*
X101500000Y-82570000D03*
%TD*%
M02*
